<svg xmlns="http://www.w3.org/2000/svg" width="243" height="229" viewBox="0 0 243 229">
    <g fill="none" fill-rule="evenodd">
        <path fill="#FFF" d="M240.515 157.933v-4.412h1.618v-5.442h-82.508v-2.5h-5.25v-10.001l4.8-6.886v-4.488h-9.296V93.808h-3.332V43.724l5.883-5.652V34.39h-16.84v-7.06h-10.867L122.503.268h-1.912l-2.22 27.062h-10.868v7.06H90.665v3.682l5.882 5.652v50.084h-3.333v30.396H83.92v4.488l4.813 6.886-.014 10h-5.25v2.501H.96v5.442h1.617v4.412H4.49v56.673H.96v14.12h241.173v-14.12h-3.53v-56.673z"/>
        <path stroke="#1703C4" stroke-linecap="round" stroke-linejoin="round" stroke-width=".794" d="M90.665 38.072h61.764"/>
        <path stroke="#1703C4" stroke-linecap="round" stroke-linejoin="round" stroke-width=".5" d="M96.547 43.724h22.025M137.519 93.809h9.027"/>
        <path stroke="#1703C4" stroke-linecap="round" stroke-linejoin="round" stroke-width=".794" d="M93.214 93.809c11.505.428 22.07.428 34.02 0"/>
        <path stroke="#1703C4" stroke-linecap="round" stroke-linejoin="round" stroke-width=".5" d="M107.503 34.39h28.087l-21.783-1.925h21.783"/>
        <path stroke="#1703C4" stroke-linecap="round" stroke-linejoin="round" stroke-width=".794" d="M116.398 124.204c14.947-.315 28.471-.315 42.763 0"/>
        <path stroke="#1703C4" stroke-linecap="round" stroke-linejoin="round" stroke-width=".5" d="M93.214 124.204h13.182M135.59 128.691H83.92h24.594H83.92M83.468 148.08h66.412"/>
        <path stroke="#1703C4" stroke-linecap="round" stroke-linejoin="round" stroke-width=".794" d="M.96 153.521l145.587-1.04"/>
        <path stroke="#1703C4" stroke-linecap="round" stroke-linejoin="round" stroke-width=".5" d="M4.49 157.933h35.993"/>
        <path stroke="#1703C4" stroke-linecap="round" stroke-linejoin="round" stroke-width=".794" d="M242.134 153.521h-37.797"/>
        <path stroke="#1703C4" stroke-linecap="round" stroke-linejoin="round" stroke-width=".5" d="M223.925 157.933h16.59"/>
        <path stroke="#1703C4" stroke-linecap="round" stroke-linejoin="round" stroke-width=".794" d="M201.69 214.695l40.443-.09M.96 214.606h49.847"/>
        <path stroke="#1703C4" stroke-linecap="round" stroke-linejoin="round" stroke-width=".5" d="M83.468 145.579h13.08M159.625 145.579h-11.758"/>
        <path stroke="#1703C4" stroke-linecap="round" stroke-linejoin="round" stroke-width=".794" d="M88.733 135.578h48.786"/>
        <path stroke="#1703C4" stroke-linecap="round" stroke-linejoin="round" stroke-width=".5" d="M88.719 136.949h15.029"/>
        <path stroke="#1703C4" stroke-linecap="round" stroke-linejoin="round" stroke-width=".794" d="M142.032 135.578h12.33M151.925 93.809h-7.412M82.042 123.967h14.192M82.042 128.691h26.47"/>
        <path stroke="#1703C4" stroke-linecap="round" stroke-linejoin="round" stroke-width=".712" d="M101.366 145.579h27.5"/>
        <path stroke="#1703C4" stroke-linecap="round" stroke-linejoin="round" stroke-width=".794" d="M50.807 157.933h121.235"/>
        <path stroke="#1703C4" stroke-linecap="round" stroke-linejoin="round" stroke-width=".788" d="M135.59 32.464h-21.783"/>
        <path stroke="#1703C4" stroke-linecap="round" stroke-linejoin="round" stroke-width=".766" d="M107.366 33.965h28.224"/>
    </g>
</svg>
