<svg xmlns="http://www.w3.org/2000/svg" width="1440" height="507" viewBox="0 0 1440 507">
    <g fill="none" fill-rule="evenodd">
        <path fill="#1703C4" d="M925.86.453h10.151v138.401h20.998v22.176h21v30.586h16.801v-14.528h52.499v85.64h41.999v111.58h10.5V320.05h28.348v26.22h20.475V206.91h16.275v-9.176h17.85v-62.7h4.199v62.7h17.85v9.176h15.75v20.646h32.55v19.117h27.3v127.636h9.448v-76.406h61.949v32.756h25.2v-32.756H1440v208.571H133.412V156.48h42.003v-25.357h54.12v35.773h46.043v8.935h14.54v30.872h51.815l30.772-84.321 30.77 84.321h44.863v83.369h62.244v-83.369h77.065v82.945h-14.644v81.973h42.527v-37.863H772.94v-50.727h138.92V76.154h14V.453zM54.968 174.208H94.04v32.495h24.547v299.77H0v-86.92h18.543V309.88h14.57v-14.624h7.617v-88.552h14.238v-32.495z"/>
        <g stroke="#5F76FF" stroke-linecap="round" stroke-linejoin="round">
            <path stroke-width=".788" d="M925.86 138.452c.394-24.221.394-48.574 0-73.256M578.864 211.643v31.94M571.452 211.643v22.41"/>
            <path stroke-width=".716" d="M564.04 211.643v12.808"/>
            <path stroke-width=".788" d="M261.935 175.832v27.012M250.195 175.832v18.515M238.373 175.832v11.81M110.362 214.468v59.292M101.892 214.468v47.644M331.99 206.703h81.585M403.476 206.703v161.488M341.934 206.703v82.946M935.77 157.196c.014 17.388.014 35.388 0 51.816M957.01 155.525v68.47M977.693 173.526v67.1M994.81 186.23v67.283M1204.805 227.555v98.205M1253.078 259.148v82.503M1351.802 335.525v38.784M221.078 166.896v90.42M212.784 166.896v66.567M204.58 166.896v49.07M196.372 166.896v35.948M511.902 206.703h75.745v82.946M413.575 206.703h34.764v43.057M448.34 263.171v7.412M392.797 177.107c3.049 8.593 5.967 17.236 9.27 25.738M387.01 161.584a348.74 348.74 0 0 1 2.864 7.455M372.705 122.382c4.02 10.908 8.255 21.496 11.617 31.833M290.117 191.878v-16.046H275.58v-8.936h-40.383M229.536 266.877V131.123h-50.81M212.784 156.48l-72.882.104M330.137 206.703h11.797l9.483-25.987M118.588 222.23v-15.527h-14.333M94.04 249.76v-75.552H59.295M54.968 206.703h-9.301M118.588 233.463v47.709M573.003 289.65v81.972h42.527v-32.684M911.86 236.84v-12.845M805.067 283.03c35.422-.446 71.422-.446 106.364-.446 0-11.647 0-24.353.43-36.232M911.86 213.407v-17.253M911.86 178.305v-15.65M911.86 128.161V76.154h10.16M925.86 54.923c.394-17.986.394-35.986 0-54.47 2.484.03 0 1.162 0 0l7.453.093M946.372 138.89l-6.355-.022-4.006-.013M957.01 161.03h15.832M978.01 191.616h16.8v-14.528h41.21M1053.667 262.341h34.91M1148.63 211.113v-4.204h13.478M1182.755 152.395v-14.03c0-3.949-.147-3.333 4.2-3.333M1182.755 177.76v-20.159M1164.906 290.7v-92.967h17.849V182.7M1190.695 197.733h14.11M1209.49 206.909h5.823M1249.195 227.555h-28.64M1253.695 246.672h21.442M1286.254 374.308h3.6v-76.405h43.783M1341.843 297.903h9.959M1367.431 330.658h9.57v-32.756h10.636M1419.137 297.903h16.147M1099.807 340.311V320.05h15.875M1092.843 374.308h6.964v-23.772M505.901 290.072h4.681-11.386M275.578 175.832v40.133M587.647 289.65h-48.922M573.57 371.622h-16.845M935.77 93.558c.014 17.496.014 35.496 0 53.29"/>
        </g>
    </g>
</svg>
