<svg xmlns="http://www.w3.org/2000/svg" xmlns:xlink="http://www.w3.org/1999/xlink" width="302" height="690" viewBox="0 0 302 690">
    <defs>
        <path id="a" d="M0 .629h46.882v25.456H0z"/>
        <path id="c" d="M.253.679h44.813V32.39H.253z"/>
        <path id="e" d="M0 0h233.816v63.073H0z"/>
        <path id="g" d="M.293.205h129.358v40.823H.293z"/>
        <path id="i" d="M0 .414h130.926v26.238H0z"/>
        <path id="k" d="M.293.205h129.358v40.823H.293z"/>
        <path id="m" d="M0 .413h130.926v26.24H0z"/>
        <path id="o" d="M.63.523h67.38v12.029H.63z"/>
        <path id="q" d="M.293.205h129.358v40.823H.293z"/>
        <path id="s" d="M0 .413h130.926v26.24H0z"/>
        <path id="u" d="M.63.523h67.38v12.029H.63z"/>
        <path id="w" d="M0 .922h98.269v40.422H0z"/>
        <path id="y" d="M.056.159h61.485v87.295H.056z"/>
        <path id="A" d="M.057.159H61.54v87.296H.057z"/>
    </defs>
    <g fill="none" fill-rule="evenodd">
        <path fill="#FFF" d="M231.679 689.953l2.136-38.843c1.085-23.342-2.737-89.253-6.463-132.238-.875-10.102-1.746-18.943-2.545-25.66-.966-8.12-.244-14.033.578-19.743.838-5.84 1.782-11.466 1.127-19.02-1.136-13.11 6.82-47.882 6.82-47.882 27.277-51.113 13.07-127.687 13.07-127.687 7.388-9.12 2.273-31.922 2.273-31.922 2.273-2.28 2.273-11.4 2.273-11.4 11.366-13.681 25.005-54.153 25.005-54.153 9.092-10.26 14.207-42.182 14.207-42.182 11.934-28.502 17.617-60.424 1.705-67.834-15.912-7.41-31.824 22.801-31.824 36.482 0 13.68-21.027 51.303-23.868 59.853-2.306 6.938-15.84 22.512-20.858 28.135-.231-12.349-4.273-20.392-5.851-28.705-2.273-11.97-18.185-15.96-27.846-17.67-6.662-1.18-16.834 4.956-22.51 8.882-.228-.783-.486-1.478-.79-2.043-11.711-21.814-16.48-20.52-28.982-21.09-12.503-.57-22.163 9.69-29.551 15.39-7.388 5.7-18.185 42.752-21.595 41.612-3.41-1.14-10.797-45.602-13.07-58.713-2.274-13.11-7.388-25.081-7.956-39.332-.569-14.25-6.251-31.352-6.251-31.352C48.07 20.086 41.252-.435 20.225.135-.8.705-1.37 34.337.904 45.737c2.273 11.401 1.704 18.811 3.41 67.264 1.704 48.453 12.502 87.785 15.343 100.326 2.841 12.54 1.705 19.95 1.705 33.631 0 13.681 5.683 36.482 5.683 36.482 3.41 95.766 38.927 146.783 41.484 150.774 2.558 3.99 1.705 10.545 1.137 15.675-.35 3.163.92 8.818 1.945 12.69-.61 4.272-1.771 16.957-.809 48.304.918 29.907-7.792 110.328-11.186 140.227 0 0-1.643 22.42-1.832 38.843"/>
        <path stroke="#2700C3" stroke-linecap="round" stroke-linejoin="round" stroke-width=".54" d="M150.63 249.363c-6.251 40.472 5.416 53.842 27.01 55.552 18.831 1.49 23.868-18.241 24.437-27.362.568-9.12 4.546-38.192 10.797-62.703 1.906-7.478 2.544-13.735 2.445-19.16"/>
        <path stroke="#2700C3" stroke-linecap="round" stroke-linejoin="round" stroke-width=".78" d="M41.536 269.857s9.945 19.287 20.553 7.126c0 0 16.58-23.937 29.74-48.453 7.956-14.82 19.89-34.202 46.031-36.482 26.141-2.28 47.196-12.849 53.419-13.68 8.524-1.14 24.436 3.42 20.458 28.5-3.258 20.546-19.322 28.502-31.824 34.773-8.687 4.356-36.938 9.12-36.938 9.12s1.136 30.212-7.956 40.757M157.75 413.22c23.977-31.868 24.085-62.23 18.832-83.81-3.085-12.673-8.019-22.317-11.052-27.46M159.116 158.179c2.135 7.333 1.17 23.233.623 30.068"/>
        <path stroke="#2700C3" stroke-linecap="round" stroke-linejoin="round" stroke-width=".54" d="M46.085 305.7s-13.972 27.86.319 58.854"/>
        <path stroke="#2700C3" stroke-linecap="round" stroke-linejoin="round" stroke-width=".78" d="M165.99 193.473s7.388 8.55 9.377 18.241c0 0 1.989 6.27 8.808 5.415 6.82-.855 35.2-8.117 23.868-28.786-9.376-17.101-25.857-4.275-35.518-1.425-4.914 1.449-7.956 3.135-6.535 6.555zM163.053 267.292s-2.604 7.98-1.183 17.956c.733 5.15 5.257 11.97 16.054 12.54 10.798.57 14.7-4.432 16.765-9.262 1.704-3.99 3.925-15.407 2.273-21.044-2.842-9.69-29.362-13.68-33.909-.19z"/>
        <path stroke="#2700C3" stroke-linecap="round" stroke-linejoin="round" stroke-width=".54" d="M93.913 171.717s-.702 4.183 4.224 10.264M104.142 170.957s-11.441 5.89-7.15 48.579M31.401 129.535s8.714.76 18.185-3.04"/>
        <path stroke="#2700C3" stroke-linecap="round" stroke-linejoin="round" stroke-width=".78" d="M26.477 62.65s10.607-1.14 14.775 0"/>
        <path stroke="#2700C3" stroke-linecap="round" stroke-linejoin="round" stroke-width=".54" d="M274.627 117.754s6.82 1.14 8.334 3.8M253.79 163.356s13.26 4.18 14.396 9.501M250.92 235.38c-.879-2.068-2.818-5.036-6.981-6.66M246.373 278.715c-1.292-1.74-3-3.588-5.086-4.868M137.86 240.5s.853 5.986 5.115 10.261M142.975 250.761c-6.536 1.425-10.798-1.425-10.798-1.425M139.652 282.248c-1.043.833-3.698 2.584-7.19 2.145M125.499 202.336c1.253 1.088 6.153 7.732 8.241 15.62M104.52 422.15c5.304 0 50.01-8.36 60.618-42.562"/>
        <path stroke="#2700C3" stroke-linecap="round" stroke-linejoin="round" stroke-width=".78" d="M69.771 437.04c3.988 1.392 16.822 5.504 27.55 4.871"/>
        <path stroke="#2700C3" stroke-linecap="round" stroke-linejoin="round" stroke-width=".54" d="M233.364 406.403c-3.481 4.934-9.295 11.634-17.55 16.2"/>
        <path stroke="#2700C3" stroke-linecap="round" stroke-linejoin="round" stroke-width=".78" d="M131.04 428.99s25.005-6.08 47.737-2.28M34.811 208.579s21.216 3.04 30.309-6.08"/>
        <path fill="#2700C3" d="M84.53 249.387c.053.388.087.584.168.976.066.317.181.46.333.428.153-.03.341-.22.564-.573.212-.335.357-.675.438-1.018.082-.343.083-.669.016-.977-.083-.39-.12-.586-.173-.972l-1.347 2.136m-2.583 6.454c.677-1.889 1.028-2.827 1.75-4.684a8.091 8.091 0 0 1-.052-.36c-.813 1.292-1.222 1.943-2.042 3.253-.08-.63-.103-.943-.106-1.558 2.166-3.46 3.239-5.17 5.322-8.466.02 1.028.092 1.556.34 2.63.118.517.174 1.071.143 1.663a6.865 6.865 0 0 1-.32 1.766 7.179 7.179 0 0 1-.774 1.659c-.391.617-.778 1.01-1.147 1.175-.368.165-.689.073-.928-.276a165.423 165.423 0 0 0-1.632 4.996 15.401 15.401 0 0 1-.554-1.798M87.98 253.17l-1.139 1.782c.47.935.735 1.406 1.312 2.355l-1.004 1.564a27.825 27.825 0 0 1-1.305-2.354c-.486.762-.73 1.145-1.217 1.914.52 1.052.82 1.583 1.475 2.65l-1.076 1.679c-1.067-1.744-1.523-2.611-2.215-4.312 2.196-3.477 3.287-5.199 5.427-8.556.725 1.687 1.2 2.55 2.303 4.297-.421.65-.632.975-1.054 1.63a28.94 28.94 0 0 1-1.507-2.649M90.537 264.505c.546-1.613.82-2.418 1.369-4.025a238 238 0 0 0-2.725 2.248c.52.71.792 1.066 1.356 1.777m-.683 2.017a49.704 49.704 0 0 1-2.02-2.652c-.535.453-.8.681-1.333 1.136a37.618 37.618 0 0 1-1.192-1.79 202.205 202.205 0 0 1 7.292-5.921c.589.792.897 1.19 1.537 1.984-1.38 4.41-2.068 6.634-3.42 11.06a62.646 62.646 0 0 1-1.533-1.811c.267-.803.4-1.203.67-2.006M101.637 268.727c.195 1.141.053 2.269-.434 3.386a145.1 145.1 0 0 1-1.782-1.768 3.104 3.104 0 0 0 .026-1.52 2.775 2.775 0 0 0-.721-1.31c-.478-.498-1.006-.684-1.59-.553-.582.131-1.118.565-1.612 1.299-.493.733-.746 1.47-.755 2.208-.006.74.223 1.355.698 1.845.362.373.751.581 1.17.63.418.048.821-.053 1.211-.3.704.705 1.062 1.055 1.778 1.75-.82.776-1.716 1.162-2.68 1.159-.964-.004-1.88-.437-2.734-1.312a5.18 5.18 0 0 1-1.32-2.32 5.989 5.989 0 0 1-.065-2.726 7.37 7.37 0 0 1 1.123-2.675c.56-.84 1.184-1.446 1.88-1.815.692-.37 1.399-.473 2.126-.313.728.16 1.42.587 2.08 1.273.864.9 1.404 1.92 1.6 3.062M109.345 274.848c-.449.628-.673.94-1.117 1.566a237.3 237.3 0 0 1-1.917-1.775c-1.873 2.648-2.8 3.959-4.648 6.588-.69-.62-1.037-.934-1.727-1.567 1.85-2.655 2.777-3.98 4.649-6.645a168.408 168.408 0 0 1-1.904-1.83l1.112-1.6a251.192 251.192 0 0 0 5.552 5.263M74.309 268.635c.37-.091.814-.537 1.315-1.339.502-.801.835-1.6 1.017-2.391.182-.794.197-1.506.09-2.131a10.888 10.888 0 0 1-.111-.755c-1.26 2.02-1.892 3.03-3.151 5.05.034.304.057.454.107.759.104.627.364.898.733.807m.278 2.206c-.526.385-.998.5-1.39.344-.39-.156-.665-.592-.79-1.302-.177-1.006-.222-1.506-.218-2.489l5.501-8.815c0 .97.05 1.464.235 2.465.131.71.182 1.517.112 2.41a11.79 11.79 0 0 1-.557 2.772c-.312.95-.735 1.862-1.281 2.73-.544.869-1.085 1.496-1.612 1.885M77.895 274.932c.61-1.643.918-2.465 1.538-4.107a255.737 255.737 0 0 0-2.552 2.377c.378.691.581 1.038 1.014 1.73m-.76 2.054a28.213 28.213 0 0 1-1.51-2.582c-.497.474-.745.713-1.237 1.188a20.943 20.943 0 0 1-.798-1.743 212.486 212.486 0 0 1 6.743-6.264c.423.772.652 1.16 1.143 1.936a646.583 646.583 0 0 0-3.85 11.276 35.874 35.874 0 0 1-1.235-1.769c.297-.816.445-1.224.745-2.042M88.87 278.625a219.65 219.65 0 0 0-5.967 3.419c-.756 1.16-1.134 1.74-1.89 2.905-.585-.654-.87-.983-1.42-1.644.755-1.169 1.131-1.753 1.885-2.915a425.294 425.294 0 0 1 1.894-8.23c.572.772.872 1.159 1.495 1.928-.489 1.95-.729 2.926-1.201 4.87 1.376-.89 2.07-1.333 3.47-2.21.676.756 1.024 1.131 1.734 1.877M66.247 278.631c.042.43.07.646.144 1.079.096.573.36.553.75-.07.388-.62.509-1.227.41-1.81-.072-.422-.1-.633-.143-1.051l-1.16 1.852m-1.187 4.544c.192-.305.324-.629.399-.965.075-.337.083-.655.033-.953-.08-.47-.112-.706-.156-1.174-.48.767-.72 1.148-1.197 1.907.045.475.074.715.153 1.194.1.622.372.622.768-.01m1.001.316a6.18 6.18 0 0 1-.72 1.701c-.463.741-.888 1.116-1.256 1.124-.37.01-.645-.363-.777-1.112-.23-1.308-.287-1.958-.255-3.243 2.084-3.299 3.158-5.01 5.326-8.473-.012 1.2.053 1.81.297 3.039.137.688.163 1.42.033 2.189a6.087 6.087 0 0 1-.86 2.23c-.33.526-.639.854-.923.981-.284.128-.51.063-.664-.187a5.801 5.801 0 0 1-.2 1.751M69.27 283.088c-.463.738-.692 1.107-1.154 1.841.432.939.676 1.41 1.213 2.345l-1.01 1.608a24.372 24.372 0 0 1-1.204-2.354l-1.214 1.938c.476 1.067.75 1.603 1.357 2.666l-1.068 1.703c-.983-1.753-1.398-2.637-2.019-4.399 2.15-3.434 3.245-5.186 5.449-8.705.657 1.709 1.092 2.57 2.116 4.284l-1.072 1.702a25.349 25.349 0 0 1-1.394-2.629M70.876 290.67c.289.41.436.616.74 1.025.245.328.49.474.73.439.238-.035.476-.236.711-.605.224-.353.339-.707.344-1.065.006-.356-.116-.696-.357-1.017a37.651 37.651 0 0 1-.746-1.023c-.57.897-.854 1.348-1.422 2.246m-1.696 6.691c.402-1.94.608-2.91 1.034-4.844a20.78 20.78 0 0 1-.266-.38c-.847 1.341-1.27 2.01-2.114 3.35a33.245 33.245 0 0 1-1.083-1.69c2.213-3.521 3.332-5.294 5.57-8.838a35.58 35.58 0 0 0 1.983 2.826c.409.539.694 1.111.84 1.723.147.613.166 1.22.05 1.826a4.873 4.873 0 0 1-.695 1.727c-.413.645-.88 1.061-1.394 1.246-.514.186-1.036.102-1.548-.248a402.091 402.091 0 0 0-.931 5.123c-.6-.722-.89-1.087-1.446-1.82M73.812 299.914a56.603 56.603 0 0 0 2.043 2.077c-.43.668-.647 1.004-1.077 1.676-1.463-1.436-2.167-2.176-3.474-3.687 2.288-3.598 3.43-5.38 5.71-8.922.574.643.87.962 1.475 1.595-1.865 2.88-2.802 4.331-4.677 7.261M82.952 296.947a932.939 932.939 0 0 0-5.823 8.921 61.127 61.127 0 0 1-1.62-1.495 996.537 996.537 0 0 1 5.797-8.93c.648.61.979.91 1.646 1.504M84.612 311.789a65.855 65.855 0 0 1-1.751-1.259c.297-3.1.434-4.645.716-7.75a769.145 769.145 0 0 0-3.609 5.509 68.31 68.31 0 0 1-1.693-1.415 839.155 839.155 0 0 1 5.837-8.912c.676.583 1.02.87 1.708 1.435-.281 3.097-.418 4.633-.705 7.708 1.459-2.208 2.18-3.288 3.614-5.421.7.53 1.051.787 1.751 1.293a627.372 627.372 0 0 0-5.868 8.812"/>
        <path stroke="#2700C3" stroke-linecap="round" stroke-linejoin="round" stroke-width=".54" d="M141.039 275.593c2.279 1.575 6.365 4.567 9.779 7.983M119.443 209.065s8.987 4.359 10.177 11.484c0 0-4.494-5.498-6.767-5.741-2.273-.244 5.861 3.746 6.767 11.157M163.2 190.053s-1.136 1.71 0 3.99c1.137 2.28 7.389 7.98 8.81 16.103 1.42 8.123 8.808 9.39 8.808 9.39M165.64 201.453s3.243 1.426 4.664 8.693M171.756 201.453l27.247-11.4M185.38 198.416l22.663-10.073M165.99 193.473s9.713-3.42 13.505 5.201M182.139 202.336s2.657 5.586-1.321 14.608"/>
        <path stroke="#2700C3" stroke-linecap="round" stroke-linejoin="round" stroke-width=".78" d="M54.943 126.494s-6.641 8.362-23.542 8.266c0 0 18.143 0 21.269-2.85M41.252 60.086s-8.188-1.995-16.712 0"/>
        <path stroke="#2700C3" stroke-linecap="round" stroke-linejoin="round" stroke-width=".54" d="M70.876 195.753s10.612-8.424 6.006-.506c-4.607 7.917-9.298 9.548-9.298 9.548M72.813 213.71s7.612-18.84 5.676-21.657M71.61 462.392s1.234 4.98 15.725 7.831M201.844 434.311s-2.557 3.28-2.557 13.325M215.813 446.282s-1.467 1.71-3.74 17.386c-2.273 15.676 0 6.555 0 6.555M136.776 432.031s-2.558.763 0 38.192M159.791 432.031s3.978 4.995 0 34.276M224.588 479.874s1.66 3.745-13.525 4.315c0 0-4.673-1.425-4.105 19.95M187.123 273.66c3.719-.603 7.228-2.094 10.42-4.075M164.986 263.817c3.178 5.023 7.98 8.31 13.746 9.595M181.912 258.812s1.936 5.06-1.094 32.706M185.38 259.414s1.363 5.125-1.031 37.948"/>
        <path stroke="#2700C3" stroke-linecap="round" stroke-linejoin="round" stroke-width=".54" d="M165.99 260.554s5.353-5.233 12.742-4.472c7.39.759 16.067 2.336 17.978 6.678"/>
        <path stroke="#2700C3" stroke-linecap="round" stroke-linejoin="round" stroke-width=".78" d="M50.913 62.65s-3.784-2.627-12.104-3.008"/>
        <path stroke="#2700C3" stroke-linecap="round" stroke-linejoin="round" stroke-width=".54" d="M241.288 238.22s6.066-.015 7.387 8.55M260.988 173.214s4.778.845 7.198 4.995M274.627 123.454h4.168s3.556-.76 5.829 3.04M132.461 439.508s12.723.396 7.956 1.104c-4.767.708-13.88 4.71-7.956 3.996 5.924-.715 7.959.142 9.025 0M165.99 439.508s-16.996.121-2.22 2.592c0 0 6.313-.707-3.096 2.593M178.777 478.013s9.997-2.28 10.754-7.79c.758-5.51 7.387-15.09 9.756-7.831 0 0 .189 4.22 1.279 7.831 1.089 3.61 10.637 5.89 12.871 7.79 2.235 1.9 7.472-2.08 5.12 1.86-2.354 3.943-7.495 4.316-7.495 4.316"/>
        <path stroke="#2700C3" stroke-linecap="round" stroke-linejoin="round" stroke-width=".54" d="M178.777 472.862h-11.598s-3.676 2.492 1.382 5.532 16.424 6.66 17.94 12.07c1.515 5.411 3.788 10.163 2.273 13.677-1.516 3.513 3.03 12.635 3.41 15.296.378 2.66 3.71 13.98 6.78 8.51 3.069-5.47 6.479-2.05 6.1 3.65-.378 5.7-.475 9.88 1.846 15.58 2.322 5.701 3.914 11.022 6.527 0 0 0-.135-3.04 2.376-5.32 2.512-2.28 1.961-3.04-.037-11.78-1.998-8.74-8.943-21.399-4.714-41.1M220.05 231.225s-5.952-1.603-10.946 1.638M209.104 264.915s-3.915-.62-5.872 1.592M93.878 292.834s7.04 19.49-5.008 25.191c-12.048 5.7-7.375 33.632-7.375 33.632s19.779 66.694 12.383 82.654M150.817 310.044s-10.847-2.85-11.165 7.41c-.319 10.261 13.215 42.896 15.257 47.1 2.041 4.204 8.055 8.764 10.73 4.774 2.677-3.99 6.536-20.487 2.333-29.055-4.202-8.567-7.487-23.958-13.233-25.098-5.745-1.14-5.625-4.56-8.811-1.14l-3.185 3.42M217.493 413.22s-2.537 1.14 0-9.406c2.536-10.545 5.945-16.245 3.956-31.636-1.989-15.391-6.969-40.187 3.193-37.052 0 0 2.49.882 6.752-.27 4.263-1.155 6.252-.3 6.82 2.835.568 3.135-3.668 68.119-13.626 55.578 0 0-2.002-1.14-2.286 3.42-.284 4.56-4.22 11.116-4.809 19.666"/>
        <path stroke="#2700C3" stroke-linecap="round" stroke-linejoin="round" stroke-width=".78" d="M226.28 432.031s-3.67 12.81-1.692 22.231c1.979 9.42-1.717 25.612-1.717 25.612"/>
        <path stroke="#2700C3" stroke-linecap="round" stroke-linejoin="round" stroke-width=".54" d="M118.18 419.351s-2.147 9.26-11.24 14.96c-9.092 5.7-6.535 6.663-6.535 6.663"/>
        <path stroke="#2700C3" stroke-linecap="round" stroke-linejoin="round" stroke-width=".54" d="M109.127 434.311s-2.755.42-3.323 5.198c-.568 4.778-2.557 14.753 7.388 25.299 9.945 10.545 10.797 11.607 5.967 15.066-4.83 3.46-13.314 11.725-13.903 30.251-.588 18.526-2.01 59.569-6.555 76.1M136.776 437.04s-.569 8.864 1.705 39.738M162.741 434.316s2.275 1.225-2.061 47.554M140.417 304.876s-4.9 4.028-4.413 9.728c.488 5.7-6.945 8.266-9.055 13.681-2.107 5.415-3.012 10.26-2.418 13.68M39.969 213.71s3.278 2.466 9.996-1.996c6.72-4.462 17.775-5.415 13.08 1.995-4.692 7.41-17.205 23.656-13.08 38.762 4.126 15.106 6.826 18.4 18.83 14.473M32.895 137.325s3.811-4.56 0 29.357c0 0-.116 9.12 4.715 12.825M44.86 184.638s17.933 2.096 20.26-2.657M65.12 179.507s9.082-6.172 7.693-2.658M37.61 7.268s-2.403-3.39-11.134 4.08c-8.732 7.47-11.345 7.41-7.494 12.54 3.853 5.131-20.015 5.701 5.558 9.976 0 0 1.42 0-3.41 2.85s0 2.566 0 2.566 2.878 10.387.728 21.867c-2.149 11.48 0 4.354 0 4.354s4.955-5.035 2.682 2.185c-2.274 7.22-1.99 13.206 0 20.616 1.989 7.41 3.02 15.391 1.936 26.507-1.084 11.115 5.451 7.697 3.746 19.952M101.72 175.71s5.483-8.364 7.625-3.993c2.142 4.37 1.574 13.381 1.574 13.381s-1.42 5.423 4.83 6.757c6.252 1.333 3.738 5.417 3.738 5.417M25.077 231.845s3.44-1.492 2.872 1.017c-.568 2.509-2.903 3.775-2.872 2.001M26.544 225.965s-1.689 1.14 0 1.71c1.69.57 1.469-1.71 1.469-1.71M119.88 140.498s-1.897.742-.372 1.67c1.525.924 1.804-1.35 1.804-1.35M114.557 146.636s-6.401 4.94 0 5.32c6.401.38 5.428-5.32 5.428-5.32s-3.445-1.936-5.428 0zM161.445 166.397s10.364-11.401 12.027-3.041c0 0-6.153 5.7-.73 8.361l5.423 2.66s3.79.007 0 7.604M178.732 155.376s-.733 3.326 4.276 2.803c5.008-.523 2.084-5.843-1.096-4.323M18.78 4.296s-1.95-2.787-4.948 1.27c-2.996 4.058 2.889 5.489 3.919 2.11M221.747 188.247s11.731-9.696 7.563 3.608c-4.166 13.304-1.996 23.564-1.996 23.564s.756 3.175 2.892 2.538c2.135-.637-4.228 14.092-4.228 14.092h-1.971"/>
        <path stroke="#2700C3" stroke-linecap="round" stroke-linejoin="round" stroke-width=".54" d="M282.961 74.431s5.073-6.08 3.936 0c-1.136 6.081-1.895 6.58-5.304 8.802-3.41 2.22-4.315 9.06-1.969 10.58 2.348 1.52-6.744 14.167-6.744 14.167s-4.168 11.93-2.273 15.412c1.893 3.482-9.62 22.383-9.62 22.383s-9.347 10.695-7.197 14.518c2.15 3.822 3.262 6.483 0 11.424-3.263 4.94 3.758 8.367-.322 10.264-4.078 1.896-16.874 5.886-12.18 6.362 4.693.475 3.802 3.137 2.542 5.037-1.259 1.898 0 3.892 0 3.892s-8.94 16.381-13.624 20.685M260.988 181.981s4.693.157 5.45 3.117M69.338 447.637s-1.77 8.254 4.263 14.754c6.034 6.503 12.388 5.743 12.388 5.743M193.803 155.91s22.563 10.107 12.366 7.446c-10.198-2.66-18.007-3.062-18.007-3.062s13.954 2.184 18.007 6.102M291.065 73.672s-4.168-.38 0 3.04c4.166 3.42 9.755 5.374 8.335 2.656-1.42-2.717-8.02-8.52-10.188-7.639M284.624 139.035s4.878-3.241 2.439 6.74c-2.44 9.981-6.227 20.622-6.227 20.622s-1.895-5.664 0-14.422c1.893-8.76 2.28-14.71 6.227-14.855"/>
        <path stroke="#2700C3" stroke-linecap="round" stroke-linejoin="round" stroke-width="1.04" d="M143.615 426.77s11.474-2.044 21.523-1.308M166.444 303.932s8.996 16.645 10.985 29.756M149.085 273.566s1.017 22.435 15.9 29.353c0 0 20.868 7.608 30.907-6.483M139.646 245.63s.456 5.69 5.72 4.712c5.264-.98 19.577-3.144 34.547-8.701M142.473 266.458s1.449-9.898.501-15.297"/>
        <path stroke="#2700C3" stroke-linecap="round" stroke-linejoin="round" stroke-width="2.08" d="M136.207 438.871v7.316"/>
        <path stroke="#2700C3" stroke-linecap="round" stroke-linejoin="round" stroke-width="1.04" d="M161.861 437.04s.766 9.432.147 11.331M69.405 435.84s-.41 2.21 10.067 4.037M202.791 434.311s-1.989 3.635-2.225 6.663"/>
        <g>
            <path stroke="#2700C3" stroke-linecap="round" stroke-linejoin="round" stroke-width="1.349" d="M121.91 555.243c22.692-3.3 52.532-13.685 64.785-19.044.658 5.93.997 9.882 1.773 15.619-12.265 5.727-47.546 17.973-64.688 18.833-.5-5.622-1.361-9.468-1.87-15.408z"/>
            <path stroke="#2700C3" stroke-linecap="round" stroke-linejoin="round" stroke-width="1.349" d="M121.91 555.243c2.862-2.656 6.618-6.108 9.668-9.324-9.142 1.698-13.865 2.134-24.125 1.562 4.166 3.627 6.127 5.229 9.94 8.222-3.276 3.893-4.913 5.68-8.146 9.095 4.79.445 10.085.374 13.618-.206M128.985 579.013c19.017-2.425 38.178-9.185 54.558-16.835 1.004 6.501 1.184 8.447 2.189 15.14-17.109 8.222-37.236 14.736-55.34 15.893-.313-4.47-.86-7.941-1.407-14.198zM188.468 551.818c-4.086 4.697-17.405 14.3-22.846 17.703M154.133 564.148c-6.771 5.457-18.435 11.787-25.27 14.865"/>
            <path stroke="#2700C3" stroke-linecap="round" stroke-linejoin="round" stroke-width="1.349" d="M184.957 570.65c5.442-2.187 9.489-3.927 14.973-7.53a1325.434 1325.434 0 0 1-6.916 12.316 863.131 863.131 0 0 0 9.28 5.08c-9.217 4.75-14.782 6.85-23.64 9.12 2.685-4.314 4.446-8.013 7.078-12.317M131.578 545.919c.28 3.587.324 3.908.617 7.254M177.383 581.246l1.272 8.39"/>
            <path fill="#2700C3" d="M128.618 561.329c.2 1.58.308 2.409.533 4.113.067.506-.236.841-.576.882-.303.037-.608-.225-.674-.73a522.546 522.546 0 0 1-.782-6.111c-.063-.524.333-.739.486-.758.273-.035.455.11.639.28a117.66 117.66 0 0 1 2.472 2.798 89.768 89.768 0 0 1 1.768-3.59c.265-.467 1.054-.463 1.138.235.276 2.285.442 3.546.791 6.152.07.509-.158.852-.464.908-.345.064-.65-.184-.718-.692-.228-1.71-.338-2.545-.539-4.13a133.137 133.137 0 0 0-1.282 2.574c-.278.549-.705.614-1.083.167-.69-.857-1.031-1.277-1.709-2.098M139.356 561.227a156.569 156.569 0 0 0-1.347-2.49c-.375 1.149-.56 1.74-.922 2.943a94.725 94.725 0 0 0 2.27-.453m-3.84 3.713c-.286-.077-.563-.551-.42-1.07.84-2.78 1.266-4.139 2.172-6.632.213-.588.901-.752 1.19-.245 1.28 2.047 1.947 3.19 3.308 5.563.489.82-.6 1.819-1.042.976l-.532-.938a90.473 90.473 0 0 1-3.551.703c-.125.437-.186.656-.31 1.098-.112.425-.537.62-.815.545M144.684 559.34c-.318.566-.476.852-.792 1.425.067.645.1.971.172 1.63.103.977-1.17 1.292-1.274.306-.238-2.256-.45-4.35-.623-6.331-.077-.873 1.187-1.221 1.267-.316.093 1.045.145 1.591.256 2.715.98-1.598 1.474-2.384 2.477-3.902.305-.427.65-.437.91-.256.287.2.326.56.084.919-.499.894-1.096 1.745-1.635 2.683a146.396 146.396 0 0 1 2.59 2.623c.682.816-.47 1.876-.938 1.22a186.27 186.27 0 0 0-2.494-2.717M149.921 561.571c-.337.097-.633-.152-.68-.567-.296-2.691-.437-3.999-.649-6.347a.773.773 0 0 1 .537-.81c1.372-.413 2.058-.627 3.425-1.069.877-.282.983 1.076.125 1.35-1.098.354-1.648.526-2.75.858.061.636.093.962.16 1.625.966-.29 1.447-.44 2.41-.744.849-.27 1.005 1.207.155 1.475-.963.304-1.446.453-2.412.742.073.682.11 1.031.19 1.735 1.17-.347 1.755-.526 2.921-.895.87-.275 1.116 1.263.178 1.558-1.441.452-2.163.67-3.61 1.09M157.298 555.253c-.238-2.182.764-4.25 2.922-5.039.818-.298 1.484-.282 2.23.122.277.169.356.644.13 1.023-.207.35-.613.464-.863.288-.431-.323-.838-.3-1.373-.106-1.445.528-2.033 1.927-1.882 3.306.154 1.404 1.009 2.527 2.47 2 .537-.193 1.003-.65 1.377-1.292.258-.39.68-.399.88-.179.18.201.309.617.032 1.158-.561 1.022-1.331 1.471-2.115 1.753-2.286.819-3.57-.852-3.808-3.034M167.029 548.948c-1.031.405-2.088 1.653-1.882 3.449.202 1.783 1.462 2.328 2.496 1.923 1.064-.416 2.063-1.848 1.854-3.632-.208-1.797-1.41-2.157-2.468-1.74m.903 6.812c-1.673.704-3.699-.112-4.015-2.895-.316-2.794 1.409-4.693 3.086-5.303 1.562-.57 3.375-.049 3.69 2.644.316 2.694-1.2 4.896-2.76 5.554M172.725 546.845c.197 1.906.326 2.946.597 5.077.599-.247.899-.371 1.492-.618 2.422-1.009 1.926-6.116-.599-5.073l-1.49.614m.217 6.776c-.3.123-.655.038-.723-.491-.352-2.729-.519-4.063-.75-6.43-.037-.374.265-.77.562-.892.828-.337 1.24-.506 2.06-.843 4.091-1.684 4.923 6.13.995 7.768-.853.357-1.283.534-2.144.888"/>
            <path fill="#2700C3" d="M179.593 550.824c-.305.132-.586-.092-.642-.51-.36-2.714-.53-4.045-.76-6.391-.035-.372.178-.731.483-.859l3.114-1.3c.792-.329.902 1.008.13 1.334-.99.415-1.488.626-2.49 1.047.065.634.1.96.178 1.626.878-.37 1.314-.556 2.18-.924.766-.325.943 1.144.178 1.472-.865.37-1.303.558-2.18.93.085.689.13 1.039.222 1.748 1.063-.456 1.59-.682 2.635-1.134.78-.336 1.047 1.19.207 1.554-1.288.562-1.939.843-3.255 1.407M134.157 582.587c-.055-.432-.03-.862.469-.94.345-.054.435.042.734.312a208.86 208.86 0 0 0 3.803 4.355c-.222-1.818-.34-2.752-.578-4.612-.05-.396.176-.882.502-.947.349-.07.74.293.792.688.345 2.701.518 4.061.821 6.638.06.503-.202.807-.418.891-.269.104-.514.014-.83-.24a153.097 153.097 0 0 1-3.788-4.344c.23 1.843.343 2.762.555 4.543.06.507-.166.836-.513.893-.346.056-.685-.181-.745-.69a884.74 884.74 0 0 0-.804-6.547M144.767 581.3c-1.083.267-2.135 1.492-1.903 3.356.231 1.852 1.52 2.487 2.603 2.217 1.115-.278 2.202-1.497 1.968-3.344-.238-1.858-1.556-2.502-2.668-2.23m.971 6.938c-1.752.488-3.79-.403-4.151-3.298-.362-2.905 1.34-4.853 3.082-5.227 1.64-.351 3.677.69 4.033 3.475.356 2.786-1.321 4.592-2.964 5.05M151.402 579.743c-.68.186-1.018.277-1.699.454-.844.22-1.017-1.322-.171-1.542 1.835-.48 2.752-.734 4.582-1.27.858-.252 1.037 1.29.176 1.541-.642.188-.964.28-1.608.462.273 2.424.406 3.628.625 5.888.092.974-1.189 1.361-1.285.363-.218-2.267-.35-3.472-.62-5.896M165.716 578.83c.314-2.083.452-3.172.716-5.364.136-1.081 1.33-1.068 1.203.08-.357 2.856-.547 4.269-1.004 6.891-.094.685-.233.925-.552 1.052-.339.134-.47-.059-.704-.375a210.034 210.034 0 0 1-2.231-3.857c-.371 2.066-.566 3.08-.992 5.017-.115.522-.247.839-.59.965-.333.122-.533-.071-.745-.5a476.1 476.1 0 0 1-2.684-5.657c-.438-.98.715-1.797 1.097-.935.845 1.783 1.265 2.67 2.073 4.344.429-2.124.625-3.228 1.008-5.455.121-.816.709-1.073 1.06-.431a369.307 369.307 0 0 0 2.345 4.224M172.571 575.845a223.64 223.64 0 0 1-1.437-2.397 116.937 116.937 0 0 1-.73 3.313c.87-.363 1.304-.545 2.167-.916m-3.614 4.432c-.263-.003-.55-.373-.422-.904.767-2.874 1.103-4.418 1.755-7.536.152-.737.808-1.034 1.136-.472 1.438 2.248 2.152 3.359 3.47 5.29.474.663-.549 1.79-.971 1.119-.205-.297-.308-.45-.517-.758-1.344.586-2.022.877-3.387 1.445-.11.45-.168.672-.282 1.113-.105.423-.503.705-.782.703M176.518 572.843c.691-.31 1.035-.464 1.719-.775 1.152-.522.865-2.962-.358-2.414-.685.306-1.028.46-1.72.764.15.985.223 1.473.359 2.425m.43 3.228c.111.909-1.077 1.485-1.19.565-.29-2.382-.487-3.711-.9-6.405-.064-.414.131-.83.427-.959.956-.416 1.431-.625 2.374-1.044 2.25-1.003 3.296 2.71 1.555 4.507.567.494.847.734 1.397 1.186.554.585-.27 1.762-.889 1.239a59.268 59.268 0 0 1-1.625-1.665c-.558.253-.838.38-1.4.632.109.8.16 1.19.251 1.944"/>
        </g>
        <g>
            <g transform="translate(39.907 19.886)">
                <mask id="b" fill="#fff">
                    <use xlink:href="#a"/>
                </mask>
                <path fill="#FFF" d="M46.882 24.076c-.637.607-1.867 1.233-6.313 1.461-1.702.086-2.97-.083-3.477-.662-.48-.547-.31-1.379-.209-1.974.058-.325.102-.58.051-.792-.103-.437-.31-1.676-.76-3.297-.275-1-.547-2.191-.895-3.463-.988-3.604-3.138-3.51-3.138-3.51l-5.396-.994a31.666 31.666 0 0 1-1.878-3.135c-.826-1.561-1.784-1.442-2.909-1.283-.661.096-1.45.225-2.547.054-2.98-.463-3.699-1.015-4.021-1.46-.434-.596-5.525-3.448-7.653-3.426-.5.01-.932.174-1.096.438-.2.093-.989-.11-1.565-.253-1.054-.264-2.142-.677-2.891-.447L.637.653A.395.395 0 0 0 .512.628C.347.624.084 1.067.024 1.23a.4.4 0 0 0 .234.512l1.774.653c.096.036.2.031.29-.008.507-.22 1.638.062 2.55.288 1.21.3 2.084.519 2.441-.018.045-.068.178-.112.364-.123 1.784-.109 6.6 2.594 7.02 3.09.508.7 1.475 1.264 4.55 1.74 1.212.187 2.1.061 2.81-.041 1.065-.152 1.465-.209 2.031.861 1.132 2.137 1.972 3.305 2.009 3.354.059.083.149.14.249.157l5.658.986c.058-.007 1.66-.028 2.463 2.902.348 1.273.672 2.443.95 3.441.446 1.61.769 2.775.871 3.204.01.068-.03.301-.06.472-.115.668-.309 1.789.423 2.623.681.78 1.939.822 3.923.722 4.736-.244 5.587-1.283 6.308-1.97" mask="url(#b)"/>
            </g>
            <g transform="translate(228.657 51.197)">
                <mask id="d" fill="#fff">
                    <use xlink:href="#c"/>
                </mask>
                <path fill="#FFF" d="M.253 2.305c.246.04 1.776.964 3.078 1.516 2.842 1.207 4.648 2.097 5.223 2.112l.001.001c1.016.025 2.106-2.604 2.764-4.222.72-.225 1.547-.252 1.86-.245h.004c.063.308.334.54.618.781.543.463 1.22 1.04 1.036 2.33-.32 2.23 1.185 3.124 2.287 3.775.169.101.335.2.49.3.353.228.158 1.03-.046 1.882-.25 1.029-.6 2.281-.112 3.197.395.745.134 2.162-.085 3.518-.214 1.32-.378 2.68-.103 3.502.356 1.06 1.976 1.993 3.689 2.963 1.102.625 2.194 1.252 2.732 1.827 1.498 1.608 4.122.471 5.077.015l.114-.054c.661-.312 3.045-.672 4.679.081l.314.145c1.642.76 2.668 1.332 3.892 1.12.27-.052.51.516.74 1.364.207.768.456 1.67.997 2.2.779.764 2.282-.14 3.474-1.028.342-.254.602-.49.889-.643-.083 1.502.86 3.113 1.136 3.649l.065-2.623c-.163-.553-.288-.932-.234-1.498.06-.632-.101-.864-.26-.955-.469-.268-1.112.381-2.098 1.117-.652.484-2.007 1.5-2.313 1.2-.385-.38-.591-1.139-.772-1.808-.266-.984-.553-2.092-1.577-1.923-.987.17-2.082-.335-3.6-1.036l-.316-.145c-1.838-.847-4.457-.51-5.345-.092l-.116.056c-.815.389-2.973 1.422-4.085.233-.62-.664-1.758-1.31-2.964-1.992-1.438-.815-3.068-1.74-3.328-2.51-.212-.634-.019-1.839.17-3.005.25-1.554.51-3.16-.014-4.143-.342-.645-.098-1.655.115-2.545.261-1.085.532-2.206-.292-2.74-.163-.106-.337-.21-.518-.316-1.106-.655-2.15-1.273-1.906-2.974.249-1.727-.725-2.557-1.309-3.053a33.442 33.442 0 0 0-.35-.298.56.56 0 0 0-.2-.498c-.126-.103-.32-.157-.584-.164-.49-.012-1.216.142-2.174.46a.395.395 0 0 0-.242.228C9.978 3.313 8.95 5.259 8.572 5.323 8.1 5.31 5.353 4.189 3.532 3.416 1.454 2.534.538 2.336.253 2.306" mask="url(#d)"/>
            </g>
            <g transform="translate(39.907 20.514)">
                <mask id="f" fill="#fff">
                    <use xlink:href="#e"/>
                </mask>
                <path fill="#FFF" d="M.259 1.115l1.773.653a.39.39 0 0 0 .29-.008c.507-.221 1.639.062 2.549.287 1.211.303 2.086.52 2.443-.017.044-.068.177-.112.363-.123 1.783-.109 6.6 2.593 7.02 3.09.508.7 1.475 1.263 4.55 1.74 1.212.186 2.1.061 2.81-.042 1.064-.152 1.464-.208 2.032.862 1.131 2.137 1.971 3.305 2.007 3.354.06.083.15.139.25.157l5.658.986c.058-.008 1.66-.028 2.464 2.902.347 1.273.672 2.443.949 3.441.447 1.61.77 2.775.87 3.204.011.068-.029.3-.058.471-.116.669-.31 1.79.42 2.624.683.78 1.974 1.11 3.96 1.008 4.735-.242 5.823-1.28 6.544-1.966.13-.125.244-.238.375-.325.476-.312 1.039-.3 1.692-.288.322.007.66.01 1.01-.017.48-.04 1.056-.232 1.667-.436.816-.272 1.74-.578 2.357-.465.734.143 1.56-.467 2.41-1.114.75-.57 1.6-1.216 2.368-1.283.654-.056 1.182-.435 1.65-.77.47-.336.88-.627 1.292-.542.456.093.99.638 1.587 1.618.712 1.165 1.104 1.963 1.39 2.545.66 1.339.836 1.605 2.526 2.072l2.13.587 2.609 5.754c.25.896 1.31 2.61 3.526 2.672l1.355.039c2.136.066 4.152.125 5.4.069 1.306-.06 4.437-.667 5.396-.858l2.838 4.978a.392.392 0 0 0 .303.198l4.865.19 3.042 2.902 4.518 1.862s.235.04.33.028l4.372.785c.045-.032.087-.068.144-.09 4-1.35 7.205-3.785 8.698-4.342 1.562-.58 2.934.124 3.752.743l.211.163c.963.736.567.071 2.207.279.328.04.67.078 1.01.116 1.1.121 2.607.287 2.872.58.47.53 4.082 1.66 5.611 2.123a.381.381 0 0 0 .27-.018l3.378-1.49a.406.406 0 0 0 .185-.17c.427-.761 1.901-2.903 3.006-2.704.768.129 1.472-.318 2.221-.798 1.15-.73 2.449-1.564 4.401-.751 2.202.917 4.65 1.018 7.278.304l.137-.036c.199-.049.48-.187.956-.428.53-.268 1.767-.892 2.08-.782.41.243 1.136 2.963 1.254 4.696.114 1.698 3.493 4.772 5.477 4.984 1.745.176 3.008-1.626 3.515-4.96.057-.38.2-.62.437-.736.652-.317 1.93.267 2.326.497.106.062.232.07.342.024l1.85-.756c.662-.27 1.161-.332 1.48-.188.34.154.54.56.742 1.124.076.216.249.357.475.386 1.379.205 6.851-5.811 6.985-6.042.332-.165 2.218.114 3.775.478a.384.384 0 0 0 .352-.093c1.34-1.236 3.024-2.607 3.371-2.669.246.04 1.72.666 3.021 1.22 2.843 1.205 4.75 1.998 5.324 2.013h.001c1.016.026 2.198-2.477 2.856-4.094.72-.227 1.455-.38 1.768-.372h.003c.064.308.335.539.618.78.545.464 1.221 1.042 1.038 2.33-.322 2.231 1.184 3.124 2.285 3.775.17.102.336.2.491.3.353.228.158 1.032-.046 1.882-.25 1.03-.6 2.282-.112 3.198.395.744.133 2.162-.086 3.518-.213 1.32-.377 2.68-.101 3.501.356 1.06 1.976 1.994 3.688 2.964 1.102.624 2.195 1.252 2.732 1.827 1.498 1.608 4.122.472 5.077.015l.114-.054c.661-.312 3.045-.672 4.679.081l.314.145c1.642.759 2.668 1.332 3.892 1.12.27-.052.51.516.739 1.364.208.768.457 1.67.998 2.2.778.764 2.282-.14 3.474-1.028.342-.254.602-.49.888-.643-.082 1.502.861 3.113 1.137 3.649l.065-2.623c-.162-.553-.288-.932-.234-1.499.06-.631-.101-.863-.261-.954-.468-.268-1.111.381-2.097 1.116-.652.485-2.007 1.5-2.313 1.2-.385-.38-.591-1.138-.773-1.808-.265-.983-.55-2.09-1.577-1.922-.986.17-2.081-.335-3.599-1.036l-.316-.146c-1.839-.846-4.457-.51-5.345-.091l-.117.056c-.814.388-2.972 1.422-4.084.233-.62-.664-1.758-1.31-2.964-1.992-1.438-.815-3.069-1.74-3.329-2.51-.211-.634-.018-1.84.17-3.005.252-1.554.511-3.16-.013-4.143-.342-.646-.098-1.655.115-2.545.261-1.085.532-2.207-.292-2.74-.163-.106-.338-.21-.518-.316-1.105-.656-2.15-1.273-1.907-2.974.25-1.727-.724-2.558-1.308-3.053a24.719 24.719 0 0 0-.35-.298.56.56 0 0 0-.2-.498c-.125-.104-.32-.158-.585-.164-.488-.012-1.215.141-2.173.459a.4.4 0 0 0-.243.229c-.775 1.945-1.798 3.707-2.177 3.771-.472-.013-3.222-1.18-5.042-1.953-2.08-.882-2.953-1.245-3.237-1.275-.666-.065-2.4 1.416-3.836 2.731-3.859-.882-4.22-.34-4.34-.161-.475.705-5.088 5.339-6.191 5.73-.21-.562-.5-1.147-1.099-1.42-.53-.24-1.218-.183-2.095.176l-1.679.686c-.505-.264-1.91-.907-2.886-.43-.33.161-.75.524-.873 1.334-.162 1.055-.824 4.498-2.656 4.287-1.73-.183-4.695-3.015-4.778-4.247-.041-.606-.612-4.96-1.758-5.384-.585-.214-1.532.22-2.707.813-.312.157-.668.336-.793.367l-.154.042c-2.457.666-4.737.575-6.776-.272-2.322-.969-3.839.117-5.017.87-.645.412-1.309.785-1.774.704-1.754-.305-3.285 2.355-3.671 3.015l-3.22 1.383c-2.307-.7-4.913-1.593-5.21-1.87-.44-.493-1.43-.654-3.23-.852-.34-.037-.685-.046-1.01-.088-1.43-.18-1.215.394-1.922-.124l-.215-.165c-.94-.713-2.62-1.526-4.464-.787-1.818.727-4.399 3.017-8.701 4.46l-4.395-.853-4.282-1.813-3.093-2.84a.398.398 0 0 0-.235-.106l-4.746-.223-2.87-5.07a.388.388 0 0 0-.418-.191c-.04.008-4.04.839-5.497.906-1.223.054-3.225-.024-5.341-.087l-1.36-.04c-2.181-.061-2.835-2.027-2.88-2.167l-2.68-6.052a.398.398 0 0 0-.255-.22l-2.254-.671c-1.403-.388-1.438-.459-2.029-1.658-.293-.596-.695-1.414-1.425-2.609-.736-1.208-1.404-1.836-2.102-1.98-.736-.151-1.36.286-1.901.673-.424.303-.823.59-1.262.627-.996.085-1.94.805-2.777 1.44-.676.514-1.37 1.044-1.791.966-.812-.154-1.8.175-2.75.493-.565.187-1.097.365-1.485.397-.322.027-.632.02-.93.014-.717-.013-1.458-.027-2.134.42-.17.11-.321.25-.488.412-.637.605-1.598 1.522-6.043 1.75-1.702.086-2.822-.162-3.33-.741-.478-.547-.337-1.364-.234-1.96.056-.323.1-.58.05-.791-.104-.437-.43-1.61-.88-3.234-.276-.998-.548-2.19-.896-3.461-.988-3.605-3.138-3.511-3.138-3.511l-5.396-.995c-.246-.356-.983-1.445-1.879-3.134-.825-1.56-1.783-1.442-2.908-1.284-.66.096-1.451.226-2.547.054-2.98-.462-3.7-1.015-4.022-1.46C14.957 3.797 9.865.945 7.738.967c-.5.01-.933.173-1.096.438-.202.093-.99-.11-1.565-.254C4.02.89 2.934.474 2.184.704L.637.024A.401.401 0 0 0 .511 0C.347-.004.084.44.024.603a.401.401 0 0 0 .235.512" mask="url(#f)"/>
            </g>
            <g transform="translate(140.214 80.563)">
                <mask id="h" fill="#fff">
                    <use xlink:href="#g"/>
                </mask>
                <path fill="#FFF" d="M120.598.205c.87-.029 2.618 1.056 4.583 2.51.527.392.927.66 1.132.775.404.227 2.095-.384 3.3-.875l.038 1.118c-.472.192-2.878 1.125-3.797.612-.246-.137-.697-.472-1.269-.893-1.019-.754-3.392-2.515-3.968-2.397-.363.08-1.766 1.62-2.96 3.584-.862 1.418-1.098 2.241-1.105 2.67.141.083.291.238.404.475.239.5.15 1.298-.313 2.186-.26.501-.713.871-1.23.992-1.143.265-2.548-.528-3.077-.87-.684.41-2.72 1.445-3.95 1.28-.307-.043-.4.058-.432.09-.195.208-.167.745-.123.958a.373.373 0 0 1-.576.381c-.098-.069-2.487-1.656-4.673.315-2.262 2.041-3.079 1.847-4.328 1.335a10.889 10.889 0 0 0-.368-.147c-.158-.062-.239-.039-.287-.017-.248.115-.437.66-.575 1.058-.202.576-.392 1.12-.896 1.138h-.002c-.16.005-.47.203-.72.362-.518.328-1.159.737-1.722.376-.333-.213-.585-.816-1.042-1.952-.46-1.147-1.09-2.718-1.722-3.066-1.545-.85-5.028-2.112-5.556-1.818-.727.563-3.051 1.777-4.064.664a5.25 5.25 0 0 1-.65-.899c-.22-.364-.33-.548-.792-.74-.274-.112-.6-.202-.934-.295-.865-.242-1.761-.492-2.115-1.15a5.24 5.24 0 0 1-.232-.517c-.329-.799-.587-1.287-1.56-1.195-.792.068-1.64-.132-2.451-.33-.924-.223-1.797-.435-2.564-.256a42.9 42.9 0 0 1-.748.166c-.968.211-2.293.5-2.401.858-.174.579-1.06.847-1.918 1.105-.276.083-.644.194-.79.272-.018.141-.04.43-.057.69-.07 1.067-.18 2.68-.61 3.584-.213.446-.143.707-.054 1.039.111.41.249.92-.242 1.654-.392.585-.484 2.147-.55 3.288-.067 1.13-.11 1.734-.311 2.02-.059.084-.157.23-.28.42-1.086 1.64-2.19 3.214-2.904 3.598l-.176.095c-.85.453-3.431 1.831-3.739 2.86-.279.933-1.076.995-1.603 1.037-.443.034-.599.069-.66.214-.273.644-1.449 4.721-2.034 6.786a.366.366 0 0 1-.226.247c-.515.193-3.138 1.137-4.06.744-1.992-.847-2.272-.457-2.283-.44-.151.237-.566.697-1.288 1.492-1.035 1.143-2.454 2.707-2.793 3.42a.376.376 0 0 1-.394.208c-.817-.132-3.08-.443-3.76-.328-.534.088-2.145-.766-5.626-2.426-1.42-.678-3.247-1.601-3.641-1.688-.085.018-.182-.054-.268-.09-.308-.132-.274-.358-.619-1.607-.17-.615-.53-1.686-.71-1.853-.772-.377-1.113-2.587-.887-3.691.065-.32-.19-.9-.546-1.41-.551-.79-1.42-1.509-2.077-1.608-1.337-.2-7.206-1.77-8.565-2.517-.982-.54-6.132-1.646-8.085-2.086-1.275.231-2.769.798-2.93 1.18-.4.939-1.055 1.513-1.733 1.785-.185.075-.19.078 0 0 .497-.2 1.252-1.181 1.594-1.93.264-.574 2.294-1.148 3.016-1.273a.382.382 0 0 1 .145.003c.283.064 6.91 1.371 8.201 2.082 1.206.663 6.977 2.223 8.41 2.439 1.047.157 1.825 1.019 2.334 1.749.484.693.678 1.144.571 1.674-.216 1.062.2 3.033.727 3.365.367.23.504.586.898 2.012.123.447.351 1.187.462 1.43.385.054 1.245.426 3.84 1.664 1.913.913 4.971 2.423 5.458 2.407.783-.134 2.973.135 3.758.254.512-.852 1.671-2.237 2.692-3.362.558-.617 1.184-1.343 1.308-1.54.544-.848 1.947-.326 3.059.146.412.176 2.137-.27 3.459-.748.29-1.03 1.58-6.007 1.909-6.782.249-.583.824-.628 1.286-.664.58-.045.828-.103.95-.508.35-1.169 2.269-2.325 4.1-3.303l.173-.093c.65-.35 2.093-2.533 2.637-3.355.13-.197.23-.35.291-.438.092-.163.141-1.014.177-1.635.081-1.361.17-2.905.674-3.658.304-.452.24-.69.144-1.048-.103-.382-.23-.857.1-1.55.37-.777.476-2.366.541-3.315.036-.538.054-.782.096-.924.103-.346.545-.48 1.276-.7.398-.12 1.331-.401 1.42-.61.235-.775 1.435-1.036 2.956-1.367.245-.054.492-.108.739-.165.938-.217 1.938.025 2.906.26.785.19 1.526.367 2.208.31 1.608-.137 2.022.94 2.314 1.653.066.159.127.312.2.446.204.381.978.597 1.66.787.349.097.711.199 1.018.325.69.285.9.637 1.146 1.044.135.224.286.478.563.782.529.58 2.308-.17 3.063-.756 1.03-.799 5.85 1.475 6.365 1.758.864.476 1.496 2.051 2.054 3.44.25.624.592 1.477.758 1.607.16.105.598-.178.916-.38.377-.24.733-.467 1.094-.48h.002c.013-.047.136-.402.218-.638.204-.581.435-1.239.966-1.487.262-.123.552-.123.865-.004.134.05.263.103.385.154.988.404 1.528.625 3.548-1.2 1.91-1.72 3.976-1.153 4.978-.703.025-.308.113-.655.35-.907.178-.19.51-.399 1.076-.318.963.134 2.955-.964 3.642-1.398a.375.375 0 0 1 .417.013c.446.326 1.8 1.126 2.685.917.3-.07.52-.252.678-.556.466-.895.388-1.29.332-1.42a.3.3 0 0 0-.183-.173.391.391 0 0 1-.273-.266c-.225-.845.467-2.458 1.16-3.595.922-1.514 2.671-3.75 3.503-3.933a.739.739 0 0 1 .149-.019" mask="url(#h)"/>
            </g>
            <g transform="translate(37.75 10.383)">
                <mask id="j" fill="#fff">
                    <use xlink:href="#i"/>
                </mask>
                <path fill="#FFF" d="M68.066 18.83h-.001.001zM27.832.413c.165-.003.441.107 1.077.356 1.01.4 2.063 1.48 2.931 2.51.635.755 1.363 1.688 1.743 1.693.026-.002.063 0 .126-.07.986-1.103 2.903-3.046 2.921-3.066a.323.323 0 0 1 .303-.094c.172.033 4.214.846 5.472 1.632 1.285.806 3.77 5.017 4.064 6.17.206.817 1.296 1.842 1.675 2.271l3.575-1.268c.258-.363 1.36-1.685 2.966-1.804 1.333-.102 2.754.624 4.075 2.123 3.462 3.931 5.811 6.442 6.2 6.85l2.54.765c.158-.308.695-.687 2.403-1.304 2.85-1.028 6.688-1.718 6.727-1.724a.327.327 0 0 1 .19.021c1.066.467 2.953-.464 3.588-.898a.325.325 0 0 1 .28-.043l5.673 1.789c.773-.081 5.23-.42 6.307 1.097.45.635.496 2.322.452 3.225l5.43-4.172a.332.332 0 0 1 .177-.064l2.964-.143.01-.001a.317.317 0 0 1 .306.196c.11.282 2.748 6.937 3.154 8.26.274.898 1.757 1.43 2.427 1.59l4.493-1.964c.472-.526 4.067-4.497 5.823-5.529 1.734-1.02 3.731-3.958 3.752-3.987a.326.326 0 0 1 .361-.126l8.91 2.959-8.99-2.755c-.49.695-2.318 3.164-3.928 4.109-1.756 1.031-5.67 5.462-5.709 5.506a.344.344 0 0 1-.11.08l-4.482 2.022a.339.339 0 0 1-.202.02c-.102-.022-2.242-.335-2.697-1.817-.36-1.172-2.63-7.009-3.09-8.173l-2.938.154-5.607 4.39a.332.332 0 0 1-.35.026.302.302 0 0 1-.161-.296c.101-1.007-.013-2.709-.397-3.217-.874-1.156-4.531-1.078-5.876-.932a.329.329 0 0 1-.13-.012l-5.613-1.706c-.54.344-2.578 1.527-4.003 1.003-.598.112-3.976.778-6.529 1.7-1.616.582-1.924 1.024-1.99 1.129-.059.108-.212.504-.356.462l-3.16-.937a.312.312 0 0 1-.141-.085c-.024-.024-2.48-2.583-6.27-6.89-1.18-1.34-2.341-1.983-3.443-1.898-1.506.109-2.449 1.551-2.46 1.566a.319.319 0 0 1-.16.128L48.1 12.656a.327.327 0 0 1-.348-.083c-.066-.07-1.613-1.737-1.903-2.884-.263-1.036-2.662-5.098-3.793-5.805-1.019-.636-4.276-1.343-5.077-1.51-.44.468-1.956 2.082-2.79 3.016a.786.786 0 0 1-.62.284c-.68-.007-1.391-.853-2.293-1.923-.82-.975-1.739-1.958-2.598-2.297l-.156-.062c.094.31.024.563-.271.994-.4.583-.808.917-1.215.99a.825.825 0 0 1-.409-.024l-3.303.575-3.339 6.85a.296.296 0 0 1-.078.101l-2.36 1.982a.312.312 0 0 1-.075.048c-.133.06-3.301 1.468-4.955.978-2.229-.66-4.54-.69-4.564-.69l-4.79.575a.329.329 0 0 1-.098-.003L.26 13.262a.306.306 0 0 1-.255-.355c.034-.165.163-.58.332-.55l2.801.568 4.764-.557c.142 0 2.48.088 4.796.774 1.166.345 3.516-.537 4.401-.928l2.3-1.895 3.34-6.89a.315.315 0 0 1 .23-.171l3.657-.658a.334.334 0 0 1 .243.052c.054.014.26.009.738-.689.268-.39.223-.62.039-.911-.078-.124-.208-.33-.04-.517.07-.077.128-.119.226-.122z" mask="url(#j)"/>
            </g>
            <path fill="#FFF" d="M40.461 22.093l1.773.653a.39.39 0 0 0 .29-.007c.508-.222 1.639.061 2.55.287 1.21.302 2.085.52 2.442-.017.044-.068.177-.113.364-.123 1.783-.11 6.6 2.593 7.02 3.09.507.7 1.475 1.263 4.55 1.74 1.212.186 2.1.06 2.81-.042 1.064-.152 1.464-.208 2.031.862 1.132 2.136 1.972 3.305 2.007 3.353.06.083.15.14.25.158l5.659.985c.057-.007 1.66-.028 2.463 2.903.348 1.273.672 2.443.95 3.44.446 1.61.769 2.775.87 3.204.01.068-.03.301-.058.472-.117.668-.31 1.789.42 2.624.682.78 1.973 1.11 3.96 1.008 4.735-.243 5.823-1.28 6.543-1.966.13-.125.244-.239.376-.325.475-.312 1.038-.301 1.691-.288.322.006.66.01 1.01-.018.48-.04 1.057-.232 1.667-.436.816-.272 1.74-.577 2.358-.464.733.142 1.56-.468 2.41-1.114.749-.57 1.599-1.216 2.368-1.283.653-.056 1.182-.435 1.65-.77.47-.337.88-.627 1.291-.543.456.094.99.638 1.588 1.619.712 1.165 1.103 1.962 1.389 2.544.66 1.34.837 1.606 2.526 2.072l2.131.588 2.608 5.753c.25.896 1.31 2.61 3.526 2.673l1.356.038c2.135.066 4.151.126 5.4.07 1.305-.06 4.436-.668 5.395-.859l2.838 4.979a.392.392 0 0 0 .303.197l4.865.191 3.042 2.901 4.518 1.863s.235.04.33.028l4.373.785c.044-.033.086-.068.143-.09 4-1.35 7.205-3.785 8.699-4.342 1.562-.581 2.934.124 3.751.743l.212.163c.963.736.567.07 2.206.278.328.041.67.079 1.01.117 1.101.12 2.608.287 2.872.58.47.53 4.082 1.66 5.612 2.122a.381.381 0 0 0 .27-.017l3.378-1.49a.406.406 0 0 0 .184-.17c.427-.762 1.902-2.904 3.006-2.704.768.128 1.472-.319 2.222-.798 1.149-.731 2.448-1.565 4.4-.752 2.203.917 4.651 1.019 7.279.305l.137-.037c.198-.048.479-.187.955-.427.53-.268 1.767-.892 2.08-.782.41.243 1.137 2.963 1.254 4.696.114 1.698 3.494 4.772 5.477 4.983 1.745.176 3.008-1.626 3.515-4.959.057-.38.2-.62.437-.736.653-.317 1.93.267 2.326.497.106.061.232.069.342.023l1.85-.755c.662-.27 1.162-.333 1.481-.188.339.153.54.56.741 1.124.077.216.25.356.476.385 1.378.205 6.85-5.81 6.984-6.042.333-.165 2.218.115 3.775.479a.384.384 0 0 0 .352-.093c1.34-1.237 3.024-2.608 3.372-2.67.246.04 1.72.667 3.02 1.22 2.844 1.206 4.75 1.998 5.325 2.013v.001c1.017.025 2.199-2.477 2.857-4.095.72-.227 1.455-.379 1.768-.371h.003c.063.307.334.538.618.78.544.464 1.22 1.041 1.037 2.33-.321 2.23 1.185 3.124 2.286 3.775.17.101.335.2.49.3.353.228.158 1.031-.046 1.882-.249 1.029-.6 2.281-.112 3.198.396.744.134 2.162-.085 3.518-.214 1.32-.378 2.68-.102 3.501.356 1.06 1.976 1.993 3.688 2.964 1.102.624 2.195 1.251 2.732 1.827 1.498 1.607 4.122.471 5.077.015l.114-.054c.661-.312 3.045-.673 4.68.08l.313.145c1.643.76 2.668 1.333 3.893 1.121.27-.053.51.515.738 1.364.209.767.458 1.669.998 2.2.779.763 2.282-.141 3.474-1.029.342-.254.602-.49.889-.642-.082 1.502.86 3.113 1.137 3.648l.064-2.623c-.161-.552-.288-.931-.234-1.498.06-.632-.101-.864-.26-.955-.469-.267-1.112.382-2.097 1.117-.653.485-2.008 1.5-2.314 1.2-.385-.38-.591-1.139-.772-1.808-.266-.984-.551-2.091-1.577-1.923-.987.17-2.082-.335-3.6-1.035l-.315-.146c-1.84-.847-4.458-.51-5.346-.092l-.116.056c-.814.389-2.973 1.422-4.085.233-.619-.664-1.758-1.31-2.964-1.992-1.437-.815-3.068-1.739-3.328-2.51-.212-.634-.018-1.839.17-3.005.252-1.553.51-3.159-.014-4.142-.342-.646-.098-1.656.116-2.545.26-1.085.531-2.207-.293-2.74-.162-.106-.337-.211-.517-.317-1.106-.655-2.15-1.273-1.907-2.973.249-1.728-.725-2.558-1.309-3.054a24.719 24.719 0 0 0-.349-.298.56.56 0 0 0-.2-.497c-.126-.104-.32-.158-.585-.164-.489-.012-1.216.141-2.174.458a.4.4 0 0 0-.242.23c-.776 1.945-1.798 3.707-2.178 3.77-.471-.012-3.222-1.18-5.041-1.952-2.08-.883-2.953-1.245-3.238-1.276-.665-.064-2.399 1.417-3.835 2.732-3.86-.882-4.22-.34-4.34-.162-.475.705-5.088 5.34-6.192 5.73-.209-.561-.5-1.147-1.099-1.419-.53-.24-1.217-.183-2.094.175l-1.68.687c-.504-.265-1.91-.907-2.886-.43-.33.161-.75.524-.872 1.334-.162 1.054-.824 4.498-2.657 4.287-1.729-.184-4.695-3.016-4.778-4.248-.04-.605-.611-4.96-1.758-5.384-.585-.214-1.532.22-2.706.813-.313.158-.669.337-.794.367l-.153.042c-2.457.666-4.737.576-6.777-.272-2.322-.968-3.838.118-5.016.87-.645.413-1.31.785-1.774.704-1.754-.304-3.286 2.355-3.672 3.016l-3.22 1.383c-2.307-.7-4.912-1.594-5.21-1.871-.439-.492-1.43-.653-3.23-.852-.339-.037-.684-.045-1.01-.087-1.429-.18-1.214.394-1.922-.125l-.215-.165c-.939-.712-2.62-1.525-4.464-.787-1.817.728-4.398 3.018-8.7 4.46l-4.396-.853-4.282-1.812-3.093-2.84a.398.398 0 0 0-.234-.107l-4.747-.222-2.869-5.07a.388.388 0 0 0-.418-.192c-.041.009-4.04.84-5.498.906-1.223.054-3.225-.023-5.34-.086l-1.361-.04c-2.18-.062-2.834-2.028-2.88-2.167l-2.679-6.053a.398.398 0 0 0-.256-.219l-2.254-.671c-1.403-.388-1.438-.46-2.029-1.659-.293-.596-.694-1.413-1.424-2.608-.737-1.209-1.405-1.837-2.103-1.98-.735-.152-1.36.286-1.901.672-.424.303-.823.59-1.262.627-.995.086-1.94.806-2.776 1.44-.676.515-1.37 1.045-1.792.967-.812-.154-1.799.175-2.75.492-.564.187-1.097.365-1.484.398-.323.027-.632.02-.93.014-.717-.013-1.458-.027-2.134.419-.17.11-.322.251-.489.412-.636.606-1.597 1.522-6.042 1.75-1.702.087-2.823-.162-3.33-.74-.479-.548-.337-1.364-.235-1.96.056-.324.1-.58.05-.791-.104-.438-.43-1.611-.88-3.234-.275-.999-.547-2.19-.896-3.462-.988-3.605-3.137-3.51-3.137-3.51l-5.396-.995c-.246-.356-.984-1.446-1.88-3.134-.824-1.56-1.783-1.443-2.908-1.284-.66.096-1.45.225-2.546.054-2.98-.462-3.7-1.015-4.022-1.46-.433-.596-5.525-3.447-7.652-3.426-.5.01-.933.174-1.096.439-.201.092-.989-.11-1.565-.254-1.056-.263-2.143-.677-2.892-.447l-1.547-.68a.401.401 0 0 0-.126-.024c-.164-.004-.427.438-.488.602a.401.401 0 0 0 .235.512"/>
            <g>
                <g transform="translate(140.214 80.454)">
                    <mask id="l" fill="#fff">
                        <use xlink:href="#k"/>
                    </mask>
                    <path fill="#FFF" d="M120.598.205c.87-.029 2.618 1.056 4.583 2.51.527.392.927.66 1.132.775.404.227 2.095-.384 3.3-.875l.038 1.118c-.472.192-2.878 1.125-3.797.612-.246-.137-.697-.472-1.269-.893-1.019-.754-3.392-2.515-3.968-2.397-.363.08-1.766 1.62-2.96 3.584-.862 1.418-1.098 2.241-1.105 2.67.141.083.291.238.404.475.239.5.15 1.298-.313 2.186-.26.501-.713.871-1.23.992-1.143.265-2.548-.528-3.077-.87-.684.41-2.72 1.445-3.95 1.28-.307-.043-.4.058-.432.09-.195.208-.167.745-.123.958a.373.373 0 0 1-.576.381c-.098-.069-2.487-1.656-4.673.315-2.262 2.041-3.079 1.847-4.328 1.335a10.889 10.889 0 0 0-.368-.147c-.158-.062-.239-.039-.287-.017-.248.115-.437.66-.575 1.058-.202.576-.392 1.12-.896 1.138h-.002c-.16.005-.47.203-.72.362-.518.328-1.159.737-1.722.376-.333-.213-.585-.816-1.042-1.952-.46-1.147-1.09-2.718-1.722-3.066-1.545-.85-5.028-2.112-5.556-1.818-.727.563-3.051 1.777-4.064.664a5.25 5.25 0 0 1-.65-.899c-.22-.364-.33-.548-.792-.74-.274-.112-.6-.202-.934-.295-.865-.242-1.761-.492-2.115-1.15a5.24 5.24 0 0 1-.232-.517c-.329-.799-.587-1.287-1.56-1.195-.792.068-1.64-.132-2.451-.33-.924-.223-1.797-.435-2.564-.256a42.9 42.9 0 0 1-.748.166c-.968.211-2.293.5-2.401.858-.174.579-1.06.847-1.918 1.105-.276.083-.644.194-.79.272-.018.141-.04.43-.057.69-.07 1.067-.18 2.68-.61 3.584-.213.446-.143.707-.054 1.039.111.41.249.92-.242 1.654-.392.585-.484 2.147-.55 3.288-.067 1.13-.11 1.734-.311 2.02-.059.084-.157.23-.28.42-1.086 1.64-2.19 3.214-2.904 3.598l-.176.095c-.85.453-3.431 1.831-3.739 2.86-.279.933-1.076.995-1.603 1.037-.443.034-.599.069-.66.214-.273.644-1.449 4.721-2.034 6.786a.366.366 0 0 1-.226.247c-.515.193-3.138 1.137-4.06.744-1.992-.847-2.272-.457-2.283-.44-.151.237-.566.697-1.288 1.492-1.035 1.143-2.454 2.707-2.793 3.42a.376.376 0 0 1-.394.208c-.817-.132-3.08-.443-3.76-.328-.534.088-2.145-.766-5.626-2.426-1.42-.678-3.247-1.601-3.641-1.688-.085.018-.182-.054-.268-.09-.308-.132-.274-.358-.619-1.607-.17-.615-.53-1.686-.71-1.853-.772-.377-1.113-2.587-.887-3.691.065-.32-.19-.9-.546-1.41-.551-.79-1.42-1.509-2.077-1.608-1.337-.2-7.206-1.77-8.565-2.517-.982-.54-6.132-1.646-8.085-2.086-1.275.231-2.769.798-2.93 1.18-.4.939-1.055 1.513-1.733 1.785-.185.075-.19.078 0 0 .497-.2 1.252-1.181 1.594-1.93.264-.574 2.294-1.148 3.016-1.273a.382.382 0 0 1 .145.003c.283.064 6.91 1.371 8.201 2.082 1.206.663 6.977 2.223 8.41 2.439 1.047.157 1.825 1.019 2.334 1.749.484.693.678 1.144.571 1.674-.216 1.062.2 3.033.727 3.365.367.23.504.586.898 2.012.123.447.351 1.187.462 1.43.385.054 1.245.426 3.84 1.664 1.913.913 4.971 2.423 5.458 2.407.783-.134 2.973.135 3.758.254.512-.852 1.671-2.237 2.692-3.362.558-.617 1.184-1.343 1.308-1.54.544-.848 1.947-.326 3.059.146.412.176 2.137-.27 3.459-.748.29-1.03 1.58-6.007 1.909-6.782.249-.583.824-.628 1.286-.664.58-.045.828-.103.95-.508.35-1.169 2.269-2.325 4.1-3.303l.173-.093c.65-.35 2.093-2.533 2.637-3.355.13-.197.23-.35.291-.438.092-.163.141-1.014.177-1.635.081-1.361.17-2.905.674-3.658.304-.452.24-.69.144-1.048-.103-.382-.23-.857.1-1.55.37-.777.476-2.366.541-3.315.036-.538.054-.782.096-.924.103-.346.545-.48 1.276-.7.398-.12 1.331-.401 1.42-.61.235-.775 1.435-1.036 2.956-1.367.245-.054.492-.108.739-.165.938-.217 1.938.025 2.906.26.785.19 1.526.367 2.208.31 1.608-.137 2.022.94 2.314 1.653.066.159.127.312.2.446.204.381.978.597 1.66.787.349.097.711.199 1.018.325.69.285.9.637 1.146 1.044.135.224.286.478.563.782.529.58 2.308-.17 3.063-.756 1.03-.799 5.85 1.475 6.365 1.758.864.476 1.496 2.051 2.054 3.44.25.624.592 1.477.758 1.607.16.105.598-.178.916-.38.377-.24.733-.467 1.094-.48h.002c.013-.047.136-.402.218-.638.204-.581.435-1.239.966-1.487.262-.123.552-.123.865-.004.134.05.263.103.385.154.988.404 1.528.625 3.548-1.2 1.91-1.72 3.976-1.153 4.978-.703.025-.308.113-.655.35-.907.178-.19.51-.399 1.076-.318.963.134 2.955-.964 3.642-1.398a.375.375 0 0 1 .417.013c.446.326 1.8 1.126 2.685.917.3-.07.52-.252.678-.556.466-.895.388-1.29.332-1.42a.3.3 0 0 0-.183-.173.391.391 0 0 1-.273-.266c-.225-.845.467-2.458 1.16-3.595.922-1.514 2.671-3.75 3.503-3.933a.739.739 0 0 1 .149-.019" mask="url(#l)"/>
                </g>
                <g transform="translate(37.75 10.274)">
                    <mask id="n" fill="#fff">
                        <use xlink:href="#m"/>
                    </mask>
                    <path fill="#FFF" d="M68.066 18.83h-.001.001zM27.832.413c.165-.003.441.107 1.077.356 1.01.4 2.063 1.48 2.931 2.51.635.755 1.363 1.688 1.743 1.693.026-.002.063 0 .126-.07.986-1.103 2.903-3.046 2.921-3.066a.323.323 0 0 1 .303-.094c.172.033 4.214.846 5.472 1.632 1.285.806 3.77 5.017 4.064 6.17.206.817 1.296 1.842 1.675 2.271l3.575-1.268c.258-.363 1.36-1.685 2.966-1.804 1.333-.102 2.754.624 4.075 2.123 3.462 3.931 5.811 6.442 6.2 6.85l2.54.765c.158-.308.695-.687 2.403-1.304 2.85-1.028 6.688-1.718 6.727-1.724a.327.327 0 0 1 .19.021c1.066.467 2.953-.464 3.588-.898a.325.325 0 0 1 .28-.043l5.673 1.789c.773-.081 5.23-.42 6.307 1.097.45.635.496 2.322.452 3.225l5.43-4.172a.332.332 0 0 1 .177-.064l2.964-.143.01-.001a.317.317 0 0 1 .306.196c.11.282 2.748 6.937 3.154 8.26.274.898 1.757 1.43 2.427 1.59l4.493-1.964c.472-.526 4.067-4.497 5.823-5.529 1.734-1.02 3.731-3.958 3.752-3.987a.326.326 0 0 1 .361-.126l8.91 2.959-8.99-2.755c-.49.695-2.318 3.164-3.928 4.109-1.756 1.031-5.67 5.462-5.709 5.506a.344.344 0 0 1-.11.08l-4.482 2.022a.339.339 0 0 1-.202.02c-.102-.022-2.242-.335-2.697-1.817-.36-1.172-2.63-7.009-3.09-8.173l-2.938.154-5.607 4.39a.332.332 0 0 1-.35.026.302.302 0 0 1-.161-.296c.101-1.007-.013-2.709-.397-3.217-.874-1.156-4.531-1.078-5.876-.932a.329.329 0 0 1-.13-.012l-5.613-1.706c-.54.344-2.578 1.527-4.003 1.003-.598.112-3.976.778-6.529 1.7-1.616.582-1.924 1.024-1.99 1.129-.059.108-.212.504-.356.462l-3.16-.937a.312.312 0 0 1-.141-.085c-.024-.024-2.48-2.583-6.27-6.89-1.18-1.34-2.341-1.983-3.443-1.898-1.506.109-2.449 1.551-2.46 1.566a.319.319 0 0 1-.16.128L48.1 12.656a.327.327 0 0 1-.348-.083c-.066-.07-1.613-1.737-1.903-2.884-.263-1.036-2.662-5.098-3.793-5.805-1.019-.636-4.276-1.343-5.077-1.51-.44.468-1.956 2.082-2.79 3.016a.786.786 0 0 1-.62.284c-.68-.007-1.391-.853-2.293-1.923-.82-.975-1.739-1.958-2.598-2.297l-.156-.062c.094.31.024.563-.271.994-.4.583-.808.917-1.215.99a.825.825 0 0 1-.409-.024l-3.303.575-3.339 6.85a.296.296 0 0 1-.078.101l-2.36 1.982a.312.312 0 0 1-.075.048c-.133.06-3.301 1.468-4.955.978-2.229-.66-4.54-.69-4.564-.69l-4.79.575a.329.329 0 0 1-.098-.003L.26 13.262a.306.306 0 0 1-.255-.355c.034-.165.163-.58.332-.55l2.801.568 4.764-.557c.142 0 2.48.088 4.796.774 1.166.345 3.516-.537 4.401-.928l2.3-1.895 3.34-6.89a.315.315 0 0 1 .23-.171l3.657-.658a.334.334 0 0 1 .243.052c.054.014.26.009.738-.689.268-.39.223-.62.039-.911-.078-.124-.208-.33-.04-.517.07-.077.128-.119.226-.122z" mask="url(#n)"/>
                </g>
                <path fill="#FFF" d="M46.462 21.875c.036.006.288-.094.31-.062l7.42 10.28c.02.027.03.06.03.094-.002.176-.029 4.316-.556 5.699-.057.147-.027.346.088.592.736 1.583 4.416 4.218 5.222 4.48 1.025.335 3.852 2.95 4.133 4.209.063.291.147.85.252 1.559.334 2.246.89 6.002 1.718 7 1.603 1.933 7.413 7.667 8.682 7.14 1.532-.642 6.782.067 7.005.097.02.005.044.01.061.022.122.078 2.914 1.941 3.336 2.92.375.868 2.767 5.794 3.123 6.524l7.149-.503 7.831.62a.16.16 0 0 1 .102.052c.052.059 1.177 1.54 1.647 3.25.023.082 0 0 0 0-.406-1.476-1.556-2.858-1.773-3.114l-7.799-.592-7.22.523a.155.155 0 0 1-.144-.087c-.111-.228-2.74-5.616-3.147-6.557-.318-.733-2.419-2.217-3.24-2.754-.461-.058-5.442-.66-6.84-.076-1.76.725-8.358-6.417-9.049-7.252-.882-1.063-1.397-4.828-1.735-7.105-.104-.703-.237-1.235-.3-1.515-.256-1.158-2.941-3.679-3.894-3.99-.854-.278-4.698-3.015-5.481-4.697-.152-.327-.185-.61-.097-.84.477-1.248.534-5.047.54-5.538L46.31 22.122a.158.158 0 0 1 .031-.218.148.148 0 0 1 .12-.029"/>
                <path fill="#FFF" d="M40.461 21.984l1.773.653a.39.39 0 0 0 .29-.007c.508-.222 1.639.061 2.55.287 1.21.302 2.085.52 2.442-.017.044-.068.177-.113.364-.123 1.783-.11 6.6 2.593 7.02 3.09.507.7 1.475 1.263 4.55 1.74 1.212.186 2.1.06 2.81-.042 1.064-.152 1.464-.208 2.031.862 1.132 2.136 1.972 3.304 2.007 3.353.06.083.15.14.25.158l5.659.985c.057-.007 1.66-.028 2.463 2.903.348 1.273.672 2.443.95 3.44.446 1.61.769 2.775.87 3.204.01.068-.03.301-.058.472-.117.668-.31 1.789.42 2.624.682.779 1.973 1.11 3.96 1.008 4.735-.243 5.823-1.28 6.543-1.966.13-.125.244-.239.376-.325.475-.312 1.038-.301 1.691-.288.322.006.66.01 1.01-.018.48-.04 1.057-.232 1.667-.436.816-.272 1.74-.578 2.358-.464.733.142 1.56-.468 2.41-1.114.749-.57 1.599-1.216 2.368-1.283.653-.056 1.182-.435 1.65-.77.47-.337.88-.627 1.291-.543.456.094.99.638 1.588 1.618.712 1.165 1.103 1.963 1.389 2.545.66 1.34.837 1.606 2.526 2.072l2.131.588 2.608 5.753c.25.896 1.31 2.61 3.526 2.672l1.356.04c2.135.065 4.151.125 5.4.068 1.305-.059 4.436-.667 5.395-.858l2.838 4.979a.392.392 0 0 0 .303.197l4.865.191 3.042 2.901 4.518 1.863s.235.04.33.028l4.373.785c.044-.033.086-.068.143-.09 4-1.35 7.205-3.785 8.699-4.342 1.562-.581 2.934.124 3.751.742l.212.164c.963.736.567.07 2.206.278.328.041.67.079 1.01.117 1.101.12 2.608.287 2.872.58.47.53 4.082 1.66 5.612 2.122a.381.381 0 0 0 .27-.017l3.378-1.49a.406.406 0 0 0 .184-.17c.427-.762 1.902-2.904 3.006-2.704.768.128 1.472-.319 2.222-.798 1.149-.731 2.448-1.565 4.4-.752 2.203.917 4.651 1.019 7.279.305l.137-.037c.198-.048.479-.187.955-.427.53-.268 1.767-.892 2.08-.782.41.243 1.137 2.963 1.254 4.695.114 1.699 3.494 4.773 5.477 4.984 1.745.176 3.008-1.626 3.515-4.959.057-.38.2-.62.437-.736.653-.317 1.93.267 2.326.497.106.061.232.069.342.023l1.85-.755c.662-.27 1.162-.333 1.481-.188.339.153.54.56.741 1.124.077.216.25.356.476.385 1.378.205 6.85-5.81 6.984-6.042.333-.165 2.218.115 3.775.479a.384.384 0 0 0 .352-.093c1.34-1.237 3.024-2.608 3.372-2.67.246.04 1.72.667 3.02 1.22 2.844 1.206 4.75 1.998 5.325 2.013v.001c1.017.025 2.199-2.478 2.857-4.095.72-.227 1.455-.379 1.768-.371h.003c.063.307.334.538.618.78.544.463 1.22 1.041 1.037 2.33-.321 2.23 1.185 3.124 2.286 3.775.17.101.335.2.49.3.353.228.158 1.031-.046 1.882-.249 1.029-.6 2.281-.112 3.198.396.744.134 2.161-.085 3.518-.214 1.32-.378 2.68-.102 3.501.356 1.06 1.976 1.993 3.688 2.964 1.102.624 2.195 1.251 2.732 1.827 1.498 1.607 4.122.471 5.077.015l.114-.054c.661-.312 3.045-.673 4.68.08l.313.145c1.643.76 2.668 1.333 3.893 1.121.27-.053.51.515.738 1.364.209.767.458 1.669.998 2.199.779.764 2.282-.14 3.474-1.028.342-.254.602-.49.889-.642-.082 1.502.86 3.112 1.137 3.648l.064-2.623c-.161-.552-.288-.931-.234-1.498.06-.632-.101-.864-.26-.955-.469-.267-1.112.382-2.097 1.117-.653.485-2.008 1.5-2.314 1.2-.385-.38-.591-1.139-.772-1.808-.266-.984-.551-2.091-1.577-1.923-.987.17-2.082-.335-3.6-1.035l-.315-.146c-1.84-.847-4.458-.51-5.346-.092l-.116.056c-.814.389-2.973 1.422-4.085.233-.619-.664-1.758-1.31-2.964-1.992-1.437-.815-3.068-1.739-3.328-2.51-.212-.634-.018-1.839.17-3.005.252-1.553.51-3.159-.014-4.142-.342-.646-.098-1.656.116-2.545.26-1.085.531-2.207-.293-2.74-.162-.106-.337-.211-.517-.317-1.106-.655-2.15-1.273-1.907-2.973.249-1.728-.725-2.558-1.309-3.054a24.72 24.72 0 0 0-.349-.298.56.56 0 0 0-.2-.497c-.126-.104-.32-.158-.585-.164-.489-.012-1.216.14-2.174.458a.4.4 0 0 0-.242.23c-.776 1.945-1.798 3.707-2.178 3.77-.471-.012-3.222-1.18-5.041-1.953-2.08-.882-2.953-1.244-3.238-1.275-.665-.064-2.399 1.417-3.835 2.732-3.86-.882-4.22-.34-4.34-.162-.475.705-5.088 5.34-6.192 5.73-.209-.562-.5-1.147-1.099-1.419-.53-.24-1.217-.183-2.094.175l-1.68.687c-.504-.265-1.91-.907-2.886-.43-.33.16-.75.524-.872 1.333-.162 1.055-.824 4.498-2.657 4.288-1.729-.184-4.695-3.016-4.778-4.248-.04-.605-.611-4.96-1.758-5.384-.585-.214-1.532.22-2.706.813-.313.158-.669.337-.794.367l-.153.042c-2.457.666-4.737.576-6.777-.272-2.322-.968-3.838.118-5.016.87-.645.413-1.31.785-1.774.704-1.754-.304-3.286 2.355-3.672 3.016l-3.22 1.383c-2.307-.7-4.912-1.594-5.21-1.871-.439-.492-1.43-.653-3.23-.852-.339-.037-.684-.045-1.01-.087-1.429-.18-1.214.394-1.922-.125l-.215-.165c-.939-.712-2.62-1.525-4.464-.787-1.817.728-4.398 3.018-8.7 4.46l-4.396-.853-4.282-1.812-3.093-2.84a.398.398 0 0 0-.234-.107l-4.747-.222-2.869-5.07a.388.388 0 0 0-.418-.192c-.041.009-4.04.84-5.498.906-1.223.054-3.225-.024-5.34-.086l-1.361-.04c-2.18-.062-2.834-2.028-2.88-2.167l-2.679-6.053a.398.398 0 0 0-.256-.219l-2.254-.672c-1.403-.387-1.438-.458-2.029-1.658-.293-.596-.694-1.413-1.424-2.608-.737-1.209-1.405-1.837-2.103-1.98-.735-.152-1.36.286-1.901.672-.424.303-.823.59-1.262.627-.995.086-1.94.806-2.776 1.44-.676.515-1.37 1.045-1.792.967-.812-.154-1.799.175-2.75.492-.564.187-1.097.365-1.484.398-.323.027-.632.02-.93.014-.717-.013-1.458-.027-2.134.419-.17.11-.322.251-.489.412-.636.606-1.597 1.522-6.042 1.75-1.702.087-2.823-.162-3.33-.74-.479-.548-.337-1.364-.235-1.96.056-.324.1-.58.05-.791-.104-.438-.43-1.611-.88-3.234-.275-.999-.547-2.19-.896-3.462-.988-3.605-3.137-3.51-3.137-3.51l-5.396-.995c-.246-.356-.984-1.446-1.88-3.135-.824-1.56-1.783-1.442-2.908-1.283-.66.096-1.45.225-2.546.054-2.98-.462-3.7-1.015-4.022-1.46-.433-.596-5.525-3.447-7.652-3.426-.5.01-.933.174-1.096.438-.201.093-.989-.11-1.565-.253-1.056-.263-2.143-.677-2.892-.447l-1.547-.68a.401.401 0 0 0-.126-.024c-.164-.004-.427.438-.488.602a.401.401 0 0 0 .235.512"/>
                <g transform="translate(80.893 4.876)">
                    <mask id="p" fill="#fff">
                        <use xlink:href="#o"/>
                    </mask>
                    <path fill="#FFF" d="M.688 10.927c.026.018.122.227.156.222l10.629-1.976a.135.135 0 0 0 .074-.041c.102-.11 2.52-2.682 3.007-3.847.052-.124.188-.23.403-.315 1.387-.543 5.21-.001 5.86.312.832.397 4.116.449 5.029-.164.211-.142.593-.439 1.073-.814C28.446 3.114 31 1.122 32.097.994c2.128-.25 9.09-.367 9.562.706.57 1.301 4.229 3.956 4.384 4.07.016.01.033.02.052.022.12.024 2.94.519 3.779.163.74-.315 5.116-1.948 5.764-2.19l4.12 4.526 5.203 4.232a.13.13 0 0 0 .092.028c.067-.005 1.633-.257 2.93-1.036.06-.037 0 0 0 0-1.12.673-2.643.848-2.927.879l-5.165-4.23-4.153-4.58a.132.132 0 0 0-.139-.033c-.203.077-4.998 1.855-5.802 2.196-.626.266-2.797-.055-3.62-.208-.319-.237-3.75-2.8-4.27-3.985-.66-1.485-8.935-.962-9.854-.856-1.17.138-3.704 2.16-5.252 3.367-.477.372-.872.623-1.075.759-.84.564-3.981.538-4.751.167-.693-.33-4.676-.906-6.15-.327-.286.111-.473.267-.554.461-.439 1.052-2.639 3.431-2.924 3.738L.741 10.686a.136.136 0 0 0-.11.152.13.13 0 0 0 .057.09" mask="url(#p)"/>
                </g>
            </g>
            <g>
                <g transform="translate(140.214 80.454)">
                    <mask id="r" fill="#fff">
                        <use xlink:href="#q"/>
                    </mask>
                    <path fill="#FFF" d="M120.598.205c.87-.029 2.618 1.056 4.583 2.51.527.392.927.66 1.132.775.404.227 2.095-.384 3.3-.875l.038 1.118c-.472.192-2.878 1.125-3.797.612-.246-.137-.697-.472-1.269-.893-1.019-.754-3.392-2.515-3.968-2.397-.363.08-1.766 1.62-2.96 3.584-.862 1.418-1.098 2.241-1.105 2.67.141.083.291.238.404.475.239.5.15 1.298-.313 2.186-.26.501-.713.871-1.23.992-1.143.265-2.548-.528-3.077-.87-.684.41-2.72 1.445-3.95 1.28-.307-.043-.4.058-.432.09-.195.208-.167.745-.123.958a.373.373 0 0 1-.576.381c-.098-.069-2.487-1.656-4.673.315-2.262 2.041-3.079 1.847-4.328 1.335a10.889 10.889 0 0 0-.368-.147c-.158-.062-.239-.039-.287-.017-.248.115-.437.66-.575 1.058-.202.576-.392 1.12-.896 1.138h-.002c-.16.005-.47.203-.72.362-.518.328-1.159.737-1.722.376-.333-.213-.585-.816-1.042-1.952-.46-1.147-1.09-2.718-1.722-3.066-1.545-.85-5.028-2.112-5.556-1.818-.727.563-3.051 1.777-4.064.664a5.25 5.25 0 0 1-.65-.899c-.22-.364-.33-.548-.792-.74-.274-.112-.6-.202-.934-.295-.865-.242-1.761-.492-2.115-1.15a5.24 5.24 0 0 1-.232-.517c-.329-.799-.587-1.287-1.56-1.195-.792.068-1.64-.132-2.451-.33-.924-.223-1.797-.435-2.564-.256a42.9 42.9 0 0 1-.748.166c-.968.211-2.293.5-2.401.858-.174.579-1.06.847-1.918 1.105-.276.083-.644.194-.79.272-.018.141-.04.43-.057.69-.07 1.067-.18 2.68-.61 3.584-.213.446-.143.707-.054 1.039.111.41.249.92-.242 1.654-.392.585-.484 2.147-.55 3.288-.067 1.13-.11 1.734-.311 2.02-.059.084-.157.23-.28.42-1.086 1.64-2.19 3.214-2.904 3.598l-.176.095c-.85.453-3.431 1.831-3.739 2.86-.279.933-1.076.995-1.603 1.037-.443.034-.599.069-.66.214-.273.644-1.449 4.721-2.034 6.786a.366.366 0 0 1-.226.247c-.515.193-3.138 1.137-4.06.744-1.992-.847-2.272-.457-2.283-.44-.151.237-.566.697-1.288 1.492-1.035 1.143-2.454 2.707-2.793 3.42a.376.376 0 0 1-.394.208c-.817-.132-3.08-.443-3.76-.328-.534.088-2.145-.766-5.626-2.426-1.42-.678-3.247-1.601-3.641-1.688-.085.018-.182-.054-.268-.09-.308-.132-.274-.358-.619-1.607-.17-.615-.53-1.686-.71-1.853-.772-.377-1.113-2.587-.887-3.691.065-.32-.19-.9-.546-1.41-.551-.79-1.42-1.509-2.077-1.608-1.337-.2-7.206-1.77-8.565-2.517-.982-.54-6.132-1.646-8.085-2.086-1.275.231-2.769.798-2.93 1.18-.4.939-1.055 1.513-1.733 1.785-.185.075-.19.078 0 0 .497-.2 1.252-1.181 1.594-1.93.264-.574 2.294-1.148 3.016-1.273a.382.382 0 0 1 .145.003c.283.064 6.91 1.371 8.201 2.082 1.206.663 6.977 2.223 8.41 2.439 1.047.157 1.825 1.019 2.334 1.749.484.693.678 1.144.571 1.674-.216 1.062.2 3.033.727 3.365.367.23.504.586.898 2.012.123.447.351 1.187.462 1.43.385.054 1.245.426 3.84 1.664 1.913.913 4.971 2.423 5.458 2.407.783-.134 2.973.135 3.758.254.512-.852 1.671-2.237 2.692-3.362.558-.617 1.184-1.343 1.308-1.54.544-.848 1.947-.326 3.059.146.412.176 2.137-.27 3.459-.748.29-1.03 1.58-6.007 1.909-6.782.249-.583.824-.628 1.286-.664.58-.045.828-.103.95-.508.35-1.169 2.269-2.325 4.1-3.303l.173-.093c.65-.35 2.093-2.533 2.637-3.355.13-.197.23-.35.291-.438.092-.163.141-1.014.177-1.635.081-1.361.17-2.905.674-3.658.304-.452.24-.69.144-1.048-.103-.382-.23-.857.1-1.55.37-.777.476-2.366.541-3.315.036-.538.054-.782.096-.924.103-.346.545-.48 1.276-.7.398-.12 1.331-.401 1.42-.61.235-.775 1.435-1.036 2.956-1.367.245-.054.492-.108.739-.165.938-.217 1.938.025 2.906.26.785.19 1.526.367 2.208.31 1.608-.137 2.022.94 2.314 1.653.066.159.127.312.2.446.204.381.978.597 1.66.787.349.097.711.199 1.018.325.69.285.9.637 1.146 1.044.135.224.286.478.563.782.529.58 2.308-.17 3.063-.756 1.03-.799 5.85 1.475 6.365 1.758.864.476 1.496 2.051 2.054 3.44.25.624.592 1.477.758 1.607.16.105.598-.178.916-.38.377-.24.733-.467 1.094-.48h.002c.013-.047.136-.402.218-.638.204-.581.435-1.239.966-1.487.262-.123.552-.123.865-.004.134.05.263.103.385.154.988.404 1.528.625 3.548-1.2 1.91-1.72 3.976-1.153 4.978-.703.025-.308.113-.655.35-.907.178-.19.51-.399 1.076-.318.963.134 2.955-.964 3.642-1.398a.375.375 0 0 1 .417.013c.446.326 1.8 1.126 2.685.917.3-.07.52-.252.678-.556.466-.895.388-1.29.332-1.42a.3.3 0 0 0-.183-.173.391.391 0 0 1-.273-.266c-.225-.845.467-2.458 1.16-3.595.922-1.514 2.671-3.75 3.503-3.933a.739.739 0 0 1 .149-.019" mask="url(#r)"/>
                </g>
                <path fill="#FFF" d="M244.78 92.604a.076.076 0 0 1 .058.122c-.072.092-1.781 2.28-2.456 2.69-.648.396-1.63 1.732-1.64 1.746-.016.02-.048.026-.066.03-.994-.054-2.647-.064-2.864.149-.154.15-.56.328-1.034.532-.545.235-1.164.502-1.417.752-.203.2-.65.4-1.168.632-.726.326-1.55.694-1.75 1.106-.346.71-.51 1.494-.513 1.503a.074.074 0 0 1-.053.056c-.031.01-3.142.907-3.546 1.795-.417.915-1.192 3.494-1.2 3.52a.083.083 0 0 1-.036.044.076.076 0 0 1-.06.006c-.047-.015-4.867-1.55-5.78-1.25a6.647 6.647 0 0 0-.36.13c-.904.342-2.029.766-4.053-.776-1.303-.994-1.922-1.958-2.373-2.663-.329-.515-.567-.885-.911-1.003-.872-.299-3.067-.826-4.624.71a.074.074 0 0 1-.03.019l-2.563.766 2.544-.842c1.617-1.58 3.809-1.038 4.704-.732.394.134.65.525.995 1.066.446.694 1.038 1.619 2.32 2.596 1.958 1.494 3.092 1.107 3.96.777.126-.047.233-.097.351-.136.91-.297 5.198 1.033 5.833 1.234.13-.43.819-2.679 1.2-3.514.41-.902 3.173-1.732 3.57-1.85.042-.178.183-.893.49-1.522.224-.461 1.075-.841 1.822-1.177.485-.217.89-.407 1.072-.588.274-.27.945-.591 1.503-.832.439-.19.848-.39.981-.521.325-.317 2.52-.248 2.93-.227.16-.216 1.03-1.37 1.654-1.75.65-.395 2.158-2.45 2.176-2.473.015-.02.311-.125.334-.125M222.145 73.038c.037.02 3.658 1.901 4.034 2.11.15.083 1.415.387 2.681.709 1.903.484 4.065 1.026 4.4 1.246.408.269.383 1.72.3 3.307a8.39 8.39 0 0 0-.017.884c.019.19.49.864 3.471 4.15l.033.037c.51.562 5.5 1.632 8.04 2.153a.07.07 0 0 1 .043.025c.015.014 1.428 1.48 2.295 1.825.87.344 5.143.124 5.143.165 0 .04.083.374.084.417a.079.079 0 0 1-.079.076c-.182.005-4.465.102-5.366-.256-.858-.34-2.146-1.7-2.318-1.885-.557-.115-7.393-1.538-8.052-2.264l-.033-.036c-2.326-2.567-3.473-3.997-3.508-4.368-.015-.151.005-.493.027-.928.055-1.024.157-2.93-.213-3.171-.313-.207-2.55-.775-4.346-1.23-1.54-.391-2.493-.635-2.652-.725-.377-.208-3.932-2.222-3.967-2.241M179.9 30.904c5.161 4.021 5.955 4.54 5.962 4.545a.07.07 0 0 1 .017.018l2.953 4.72 3.695-2.53a.074.074 0 0 1 .048-.011c.036.004 3.546.427 5.026 3.216 3.086 5.824 4.66 5.878 5.068 5.758.39-.115.625-.586.63-1.26.004-.672 1.1-1.67 2.183-2.36 1.431-.912 3.375-1.65 4.539-.972.81.471.37 2.257-.14 4.325-.584 2.363-1.244 5.042-.152 6.248 1.068 1.18 2.638.776 4.153.386 1.733-.446 3.528-.907 4.487 1.086.428.891 1.372 1.238 1.898 1.364.662.156 1.27.124 1.395.028.323-.247 3.591 1.262 4.586 1.73.014.007.026.02.033.035.03.065 3.005 6.39 4.738 6.708 1.373.252 4.617 1.215 4.628 4.274.01 2.337.518 2.731 2.052 4.043.266.228.581.517.91.811.577.516 1.027.692 1.5.619.696-.11 1.107-.787 1.449-1.32.168-.261.323-.535.452-.63.542-.402 3.756-1.053 3.89-1.077.04-.005.046.183.051.224.005.042-.022.082-.06.088-.034.007-3.249.587-3.763.968-.107.08-.238.285-.392.522-.357.555-.846 1.318-1.604 1.437-.515.082-1.086-.15-1.696-.697a49.162 49.162 0 0 0-.888-.772c-1.53-1.31-2.102-1.8-2.113-4.209-.01-2.945-3.125-3.834-4.463-4.079-1.767-.324-4.579-6.316-4.81-6.815-2.012-.947-4.211-1.852-4.42-1.736-.172.133-.81.164-1.51-.002-.55-.133-1.539-.497-1.993-1.44-.905-1.887-2.568-1.463-4.327-1.01-1.554.4-3.162.812-4.287-.428-1.148-1.268-.477-3.99.115-6.391.475-1.923.922-3.74.21-4.155-1.116-.644-2.999.078-4.396.968-1.22.777-2.107 1.713-2.112 2.226-.005.748-.281 1.275-.736 1.41-.557.166-2.153-.082-5.203-5.836-1.379-2.6-4.612-3.134-4.928-3.175l-3.712 2.534c-.034.022-.077.013-.098-.02l-2.962-4.734c-.102-.079-1.048-.85-5.903-4.632-.03-.024-.01-.006 0 0M105.407 29.23a.075.075 0 0 1 .051.014l5.23 3.713c.01.007.018.02.024.031l1.733 4.022 5.82 6.723c.74-.358 7.888-3.75 9.12-3.444 1.144.28 4.042 4.107 4.35 4.515l6.548.098a.08.08 0 0 1 .04.01l7.224 4.274 6.434.632-6.464-.559a.086.086 0 0 1-.032-.01l-7.203-4.247-6.57-.09a.078.078 0 0 1-.059-.031c-.03-.042-3.17-4.203-4.302-4.48-1.24-.305-8.993 3.454-9.072 3.493a.078.078 0 0 1-.09-.02l-5.917-6.731a.048.048 0 0 1-.011-.022l-1.774-3.997-5.295-3.734c-.033-.025.137-.096.16-.13a.073.073 0 0 1 .055-.03"/>
                <g transform="translate(37.75 10.274)">
                    <mask id="t" fill="#fff">
                        <use xlink:href="#s"/>
                    </mask>
                    <path fill="#FFF" d="M68.066 18.83h-.001.001zM27.832.413c.165-.003.441.107 1.077.356 1.01.4 2.063 1.48 2.931 2.51.635.755 1.363 1.688 1.743 1.693.026-.002.063 0 .126-.07.986-1.103 2.903-3.046 2.921-3.066a.323.323 0 0 1 .303-.094c.172.033 4.214.846 5.472 1.632 1.285.806 3.77 5.017 4.064 6.17.206.817 1.296 1.842 1.675 2.271l3.575-1.268c.258-.363 1.36-1.685 2.966-1.804 1.333-.102 2.754.624 4.075 2.123 3.462 3.931 5.811 6.442 6.2 6.85l2.54.765c.158-.308.695-.687 2.403-1.304 2.85-1.028 6.688-1.718 6.727-1.724a.327.327 0 0 1 .19.021c1.066.467 2.953-.464 3.588-.898a.325.325 0 0 1 .28-.043l5.673 1.789c.773-.081 5.23-.42 6.307 1.097.45.635.496 2.322.452 3.225l5.43-4.172a.332.332 0 0 1 .177-.064l2.964-.143.01-.001a.317.317 0 0 1 .306.196c.11.282 2.748 6.937 3.154 8.26.274.898 1.757 1.43 2.427 1.59l4.493-1.964c.472-.526 4.067-4.497 5.823-5.529 1.734-1.02 3.731-3.958 3.752-3.987a.326.326 0 0 1 .361-.126l8.91 2.959-8.99-2.755c-.49.695-2.318 3.164-3.928 4.109-1.756 1.031-5.67 5.462-5.709 5.506a.344.344 0 0 1-.11.08l-4.482 2.022a.339.339 0 0 1-.202.02c-.102-.022-2.242-.335-2.697-1.817-.36-1.172-2.63-7.009-3.09-8.173l-2.938.154-5.607 4.39a.332.332 0 0 1-.35.026.302.302 0 0 1-.161-.296c.101-1.007-.013-2.709-.397-3.217-.874-1.156-4.531-1.078-5.876-.932a.329.329 0 0 1-.13-.012l-5.613-1.706c-.54.344-2.578 1.527-4.003 1.003-.598.112-3.976.778-6.529 1.7-1.616.582-1.924 1.024-1.99 1.129-.059.108-.212.504-.356.462l-3.16-.937a.312.312 0 0 1-.141-.085c-.024-.024-2.48-2.583-6.27-6.89-1.18-1.34-2.341-1.983-3.443-1.898-1.506.109-2.449 1.551-2.46 1.566a.319.319 0 0 1-.16.128L48.1 12.656a.327.327 0 0 1-.348-.083c-.066-.07-1.613-1.737-1.903-2.884-.263-1.036-2.662-5.098-3.793-5.805-1.019-.636-4.276-1.343-5.077-1.51-.44.468-1.956 2.082-2.79 3.016a.786.786 0 0 1-.62.284c-.68-.007-1.391-.853-2.293-1.923-.82-.975-1.739-1.958-2.598-2.297l-.156-.062c.094.31.024.563-.271.994-.4.583-.808.917-1.215.99a.825.825 0 0 1-.409-.024l-3.303.575-3.339 6.85a.296.296 0 0 1-.078.101l-2.36 1.982a.312.312 0 0 1-.075.048c-.133.06-3.301 1.468-4.955.978-2.229-.66-4.54-.69-4.564-.69l-4.79.575a.329.329 0 0 1-.098-.003L.26 13.262a.306.306 0 0 1-.255-.355c.034-.165.163-.58.332-.55l2.801.568 4.764-.557c.142 0 2.48.088 4.796.774 1.166.345 3.516-.537 4.401-.928l2.3-1.895 3.34-6.89a.315.315 0 0 1 .23-.171l3.657-.658a.334.334 0 0 1 .243.052c.054.014.26.009.738-.689.268-.39.223-.62.039-.911-.078-.124-.208-.33-.04-.517.07-.077.128-.119.226-.122z" mask="url(#t)"/>
                </g>
                <path fill="#FFF" d="M46.462 21.875c.036.006.288-.094.31-.062l7.42 10.28c.02.027.03.06.03.094-.002.176-.029 4.316-.556 5.699-.057.147-.027.346.088.592.736 1.583 4.416 4.218 5.222 4.48 1.025.335 3.852 2.95 4.133 4.209.063.291.147.85.252 1.559.334 2.246.89 6.002 1.718 7 1.603 1.933 7.413 7.667 8.682 7.14 1.532-.642 6.782.067 7.005.097.02.005.044.01.061.022.122.078 2.914 1.941 3.336 2.92.375.868 2.767 5.794 3.123 6.524l7.149-.503 7.831.62a.16.16 0 0 1 .102.052c.052.059 1.177 1.54 1.647 3.25.023.082 0 0 0 0-.406-1.476-1.556-2.858-1.773-3.114l-7.799-.592-7.22.523a.155.155 0 0 1-.144-.087c-.111-.228-2.74-5.616-3.147-6.557-.318-.733-2.419-2.217-3.24-2.754-.461-.058-5.442-.66-6.84-.076-1.76.725-8.358-6.417-9.049-7.252-.882-1.063-1.397-4.828-1.735-7.105-.104-.703-.237-1.235-.3-1.515-.256-1.158-2.941-3.679-3.894-3.99-.854-.278-4.698-3.015-5.481-4.697-.152-.327-.185-.61-.097-.84.477-1.248.534-5.047.54-5.538L46.31 22.122a.158.158 0 0 1 .031-.218.148.148 0 0 1 .12-.029"/>
                <path fill="#FFF" d="M89.39 56.718c.02.003.039.009.058.014.103.035.134.07.168.164.199.534 1.53 1.682 2.694 2.66.952.8 1.75 1.454 1.936 1.795.02.038.02.037 0 0-.17-.315-1.09-.992-1.99-1.749-1.236-1.039-2.514-2.112-2.727-2.683-.017-.05-.053-.082-.112-.1a.209.209 0 0 0-.046-.012c-.859-.161-4.254 1.936-5.514 2.774l-2.662 1.535a.072.072 0 0 1-.052.008l-6.517-1.218-5.098.61a.077.077 0 0 1-.084-.068c-.004-.042-.152-.132-.11-.138l5.31-.594c.007 0-.008 0 0 0l6.505 1.256 2.948-1.71c.184-.122 4.187-2.75 5.293-2.544M40.461 21.984l1.773.653a.39.39 0 0 0 .29-.007c.508-.222 1.639.061 2.55.287 1.21.302 2.085.52 2.442-.017.044-.068.177-.113.364-.123 1.783-.11 6.6 2.593 7.02 3.09.507.7 1.475 1.263 4.55 1.74 1.212.186 2.1.06 2.81-.042 1.064-.152 1.464-.208 2.031.862 1.132 2.136 1.972 3.304 2.007 3.353.06.083.15.14.25.158l5.659.985c.057-.007 1.66-.028 2.463 2.903.348 1.273.672 2.443.95 3.44.446 1.61.769 2.775.87 3.204.01.068-.03.301-.058.472-.117.668-.31 1.789.42 2.624.682.779 1.973 1.11 3.96 1.008 4.735-.243 5.823-1.28 6.543-1.966.13-.125.244-.239.376-.325.475-.312 1.038-.301 1.691-.288.322.006.66.01 1.01-.018.48-.04 1.057-.232 1.667-.436.816-.272 1.74-.578 2.358-.464.733.142 1.56-.468 2.41-1.114.749-.57 1.599-1.216 2.368-1.283.653-.056 1.182-.435 1.65-.77.47-.337.88-.627 1.291-.543.456.094.99.638 1.588 1.618.712 1.165 1.103 1.963 1.389 2.545.66 1.34.837 1.606 2.526 2.072l2.131.588 2.608 5.753c.25.896 1.31 2.61 3.526 2.672l1.356.04c2.135.065 4.151.125 5.4.068 1.305-.059 4.436-.667 5.395-.858l2.838 4.979a.392.392 0 0 0 .303.197l4.865.191 3.042 2.901 4.518 1.863s.235.04.33.028l4.373.785c.044-.033.086-.068.143-.09 4-1.35 7.205-3.785 8.699-4.342 1.562-.581 2.934.124 3.751.742l.212.164c.963.736.567.07 2.206.278.328.041.67.079 1.01.117 1.101.12 2.608.287 2.872.58.47.53 4.082 1.66 5.612 2.122a.381.381 0 0 0 .27-.017l3.378-1.49a.406.406 0 0 0 .184-.17c.427-.762 1.902-2.904 3.006-2.704.768.128 1.472-.319 2.222-.798 1.149-.731 2.448-1.565 4.4-.752 2.203.917 4.651 1.019 7.279.305l.137-.037c.198-.048.479-.187.955-.427.53-.268 1.767-.892 2.08-.782.41.243 1.137 2.963 1.254 4.695.114 1.699 3.494 4.773 5.477 4.984 1.745.176 3.008-1.626 3.515-4.959.057-.38.2-.62.437-.736.653-.317 1.93.267 2.326.497.106.061.232.069.342.023l1.85-.755c.662-.27 1.162-.333 1.481-.188.339.153.54.56.741 1.124.077.216.25.356.476.385 1.378.205 6.85-5.81 6.984-6.042.333-.165 2.218.115 3.775.479a.384.384 0 0 0 .352-.093c1.34-1.237 3.024-2.608 3.372-2.67.246.04 1.72.667 3.02 1.22 2.844 1.206 4.75 1.998 5.325 2.013v.001c1.017.025 2.199-2.478 2.857-4.095.72-.227 1.455-.379 1.768-.371h.003c.063.307.334.538.618.78.544.463 1.22 1.041 1.037 2.33-.321 2.23 1.185 3.124 2.286 3.775.17.101.335.2.49.3.353.228.158 1.031-.046 1.882-.249 1.029-.6 2.281-.112 3.198.396.744.134 2.161-.085 3.518-.214 1.32-.378 2.68-.102 3.501.356 1.06 1.976 1.993 3.688 2.964 1.102.624 2.195 1.251 2.732 1.827 1.498 1.607 4.122.471 5.077.015l.114-.054c.661-.312 3.045-.673 4.68.08l.313.145c1.643.76 2.668 1.333 3.893 1.121.27-.053.51.515.738 1.364.209.767.458 1.669.998 2.199.779.764 2.282-.14 3.474-1.028.342-.254.602-.49.889-.642-.082 1.502.86 3.112 1.137 3.648l.064-2.623c-.161-.552-.288-.931-.234-1.498.06-.632-.101-.864-.26-.955-.469-.267-1.112.382-2.097 1.117-.653.485-2.008 1.5-2.314 1.2-.385-.38-.591-1.139-.772-1.808-.266-.984-.551-2.091-1.577-1.923-.987.17-2.082-.335-3.6-1.035l-.315-.146c-1.84-.847-4.458-.51-5.346-.092l-.116.056c-.814.389-2.973 1.422-4.085.233-.619-.664-1.758-1.31-2.964-1.992-1.437-.815-3.068-1.739-3.328-2.51-.212-.634-.018-1.839.17-3.005.252-1.553.51-3.159-.014-4.142-.342-.646-.098-1.656.116-2.545.26-1.085.531-2.207-.293-2.74-.162-.106-.337-.211-.517-.317-1.106-.655-2.15-1.273-1.907-2.973.249-1.728-.725-2.558-1.309-3.054a24.72 24.72 0 0 0-.349-.298.56.56 0 0 0-.2-.497c-.126-.104-.32-.158-.585-.164-.489-.012-1.216.14-2.174.458a.4.4 0 0 0-.242.23c-.776 1.945-1.798 3.707-2.178 3.77-.471-.012-3.222-1.18-5.041-1.953-2.08-.882-2.953-1.244-3.238-1.275-.665-.064-2.399 1.417-3.835 2.732-3.86-.882-4.22-.34-4.34-.162-.475.705-5.088 5.34-6.192 5.73-.209-.562-.5-1.147-1.099-1.419-.53-.24-1.217-.183-2.094.175l-1.68.687c-.504-.265-1.91-.907-2.886-.43-.33.16-.75.524-.872 1.333-.162 1.055-.824 4.498-2.657 4.288-1.729-.184-4.695-3.016-4.778-4.248-.04-.605-.611-4.96-1.758-5.384-.585-.214-1.532.22-2.706.813-.313.158-.669.337-.794.367l-.153.042c-2.457.666-4.737.576-6.777-.272-2.322-.968-3.838.118-5.016.87-.645.413-1.31.785-1.774.704-1.754-.304-3.286 2.355-3.672 3.016l-3.22 1.383c-2.307-.7-4.912-1.594-5.21-1.871-.439-.492-1.43-.653-3.23-.852-.339-.037-.684-.045-1.01-.087-1.429-.18-1.214.394-1.922-.125l-.215-.165c-.939-.712-2.62-1.525-4.464-.787-1.817.728-4.398 3.018-8.7 4.46l-4.396-.853-4.282-1.812-3.093-2.84a.398.398 0 0 0-.234-.107l-4.747-.222-2.869-5.07a.388.388 0 0 0-.418-.192c-.041.009-4.04.84-5.498.906-1.223.054-3.225-.024-5.34-.086l-1.361-.04c-2.18-.062-2.834-2.028-2.88-2.167l-2.679-6.053a.398.398 0 0 0-.256-.219l-2.254-.672c-1.403-.387-1.438-.458-2.029-1.658-.293-.596-.694-1.413-1.424-2.608-.737-1.209-1.405-1.837-2.103-1.98-.735-.152-1.36.286-1.901.672-.424.303-.823.59-1.262.627-.995.086-1.94.806-2.776 1.44-.676.515-1.37 1.045-1.792.967-.812-.154-1.799.175-2.75.492-.564.187-1.097.365-1.484.398-.323.027-.632.02-.93.014-.717-.013-1.458-.027-2.134.419-.17.11-.322.251-.489.412-.636.606-1.597 1.522-6.042 1.75-1.702.087-2.823-.162-3.33-.74-.479-.548-.337-1.364-.235-1.96.056-.324.1-.58.05-.791-.104-.438-.43-1.611-.88-3.234-.275-.999-.547-2.19-.896-3.462-.988-3.605-3.137-3.51-3.137-3.51l-5.396-.995c-.246-.356-.984-1.446-1.88-3.135-.824-1.56-1.783-1.442-2.908-1.283-.66.096-1.45.225-2.546.054-2.98-.462-3.7-1.015-4.022-1.46-.433-.596-5.525-3.447-7.652-3.426-.5.01-.933.174-1.096.438-.201.093-.989-.11-1.565-.253-1.056-.263-2.143-.677-2.892-.447l-1.547-.68a.401.401 0 0 0-.126-.024c-.164-.004-.427.438-.488.602a.401.401 0 0 0 .235.512"/>
                <g transform="translate(80.893 4.876)">
                    <mask id="v" fill="#fff">
                        <use xlink:href="#u"/>
                    </mask>
                    <path fill="#FFF" d="M.688 10.927c.026.018.122.227.156.222l10.629-1.976a.135.135 0 0 0 .074-.041c.102-.11 2.52-2.682 3.007-3.847.052-.124.188-.23.403-.315 1.387-.543 5.21-.001 5.86.312.832.397 4.116.449 5.029-.164.211-.142.593-.439 1.073-.814C28.446 3.114 31 1.122 32.097.994c2.128-.25 9.09-.367 9.562.706.57 1.301 4.229 3.956 4.384 4.07.016.01.033.02.052.022.12.024 2.94.519 3.779.163.74-.315 5.116-1.948 5.764-2.19l4.12 4.526 5.203 4.232a.13.13 0 0 0 .092.028c.067-.005 1.633-.257 2.93-1.036.06-.037 0 0 0 0-1.12.673-2.643.848-2.927.879l-5.165-4.23-4.153-4.58a.132.132 0 0 0-.139-.033c-.203.077-4.998 1.855-5.802 2.196-.626.266-2.797-.055-3.62-.208-.319-.237-3.75-2.8-4.27-3.985-.66-1.485-8.935-.962-9.854-.856-1.17.138-3.704 2.16-5.252 3.367-.477.372-.872.623-1.075.759-.84.564-3.981.538-4.751.167-.693-.33-4.676-.906-6.15-.327-.286.111-.473.267-.554.461-.439 1.052-2.639 3.431-2.924 3.738L.741 10.686a.136.136 0 0 0-.11.152.13.13 0 0 0 .057.09" mask="url(#v)"/>
                </g>
            </g>
        </g>
        <g>
            <path fill="#FFF" d="M157.473 59.844a6.957 6.957 0 0 1-6.953 6.96 6.956 6.956 0 0 1-6.953-6.96 6.956 6.956 0 0 1 6.953-6.96 6.957 6.957 0 0 1 6.953 6.96"/>
            <g transform="translate(101.386 38.71)">
                <mask id="x" fill="#fff">
                    <use xlink:href="#w"/>
                </mask>
                <path fill="#FFF" d="M49.134 5.6c-6.193 0-12.197.463-17.844 1.375-5.414.875-10.264 2.122-14.414 3.707-3.97 1.516-7.184 3.325-9.296 5.232-1.928 1.741-2.907 3.497-2.907 5.219 0 1.722.979 3.479 2.907 5.22 2.112 1.906 5.326 3.716 9.296 5.231 4.15 1.585 9 2.832 14.414 3.707 5.647.912 11.651 1.374 17.844 1.374 6.193 0 12.197-.462 17.843-1.374 5.416-.875 10.266-2.122 14.414-3.707 3.971-1.515 7.185-3.325 9.297-5.232 1.928-1.74 2.907-3.497 2.907-5.219 0-1.722-.98-3.478-2.907-5.22-2.112-1.906-5.326-3.715-9.297-5.231-4.148-1.585-8.998-2.832-14.414-3.707-5.646-.912-11.65-1.374-17.843-1.374m0 35.743c-12.778 0-24.825-1.913-33.923-5.388-4.569-1.745-8.19-3.807-10.762-6.13-1.395-1.26-2.479-2.6-3.22-3.986-.816-1.52-1.23-3.104-1.23-4.707 0-1.602.414-3.186 1.23-4.707.741-1.386 1.825-2.728 3.22-3.987 2.572-2.322 6.193-4.384 10.762-6.129C24.309 2.836 36.356.922 49.134.922c12.778 0 24.826 1.914 33.923 5.388 4.57 1.745 8.19 3.807 10.762 6.13 1.395 1.258 2.479 2.6 3.221 3.986.815 1.52 1.229 3.105 1.229 4.707 0 1.603-.414 3.186-1.229 4.707-.742 1.386-1.826 2.727-3.22 3.987-2.573 2.322-6.194 4.384-10.763 6.13-9.097 3.474-21.145 5.387-33.923 5.387" mask="url(#x)"/>
            </g>
            <g transform="translate(119.721 16.037)">
                <mask id="z" fill="#fff">
                    <use xlink:href="#y"/>
                </mask>
                <path fill="#FFF" d="M50.691 4.835c-.946 0-2 .18-3.16.54-2.714.844-5.91 2.687-9.24 5.33-3.48 2.762-7.026 6.3-10.542 10.514-3.667 4.395-7.13 9.326-10.292 14.657-3.162 5.33-5.83 10.733-7.93 16.06-2.013 5.107-3.419 9.919-4.176 14.299-.725 4.191-.812 7.882-.252 10.673.51 2.549 1.52 4.287 3 5.167 1.478.879 3.485.934 5.966.163 2.716-.844 5.91-2.687 9.24-5.33 3.48-2.762 7.027-6.3 10.544-10.514 3.666-4.395 7.128-9.327 10.29-14.657 3.163-5.33 5.832-10.733 7.93-16.06 2.015-5.107 3.42-9.919 4.177-14.299.724-4.191.812-7.883.253-10.673-.511-2.549-1.52-4.287-3-5.166-.789-.47-1.727-.704-2.808-.704M10.896 87.454c-.174 0-.344-.003-.514-.01-1.723-.075-3.294-.529-4.67-1.347-1.377-.819-2.527-1.983-3.416-3.46C1.484 81.29.885 79.672.515 77.828c-.68-3.4-.603-7.57.23-12.392 1.66-9.606 6.169-20.951 12.693-31.95 6.525-10.998 14.32-20.391 21.95-26.447 3.83-3.042 7.451-5.106 10.758-6.134C47.94.35 49.646.101 51.214.17c1.724.075 3.295.528 4.671 1.346 1.378.819 2.526 1.983 3.416 3.46.811 1.347 1.411 2.964 1.78 4.808.683 3.4.604 7.57-.23 12.392-1.66 9.606-6.168 20.952-12.692 31.95-6.524 10.998-14.32 20.391-21.95 26.447-3.83 3.042-7.45 5.105-10.76 6.134-1.598.496-3.127.747-4.553.747" mask="url(#z)"/>
            </g>
            <g transform="translate(119.721 16.037)">
                <mask id="B" fill="#fff">
                    <use xlink:href="#A"/>
                </mask>
                <path fill="#FFF" d="M8.098 5.539c-1.48.879-2.49 2.617-3 5.166-.56 2.791-.472 6.482.253 10.673.757 4.38 2.162 9.191 4.176 14.3 2.099 5.326 4.767 10.728 7.93 16.06 3.162 5.33 6.624 10.261 10.292 14.655 3.516 4.216 7.063 7.753 10.543 10.514 3.33 2.644 6.525 4.487 9.24 5.33 2.48.772 4.488.717 5.967-.162 1.48-.88 2.489-2.618 3-5.166.56-2.791.472-6.483-.252-10.674-.759-4.38-2.163-9.192-4.177-14.3-2.1-5.325-4.767-10.729-7.93-16.059-3.163-5.33-6.625-10.262-10.291-14.657-3.517-4.214-7.064-7.752-10.543-10.514-3.33-2.643-6.525-4.486-9.241-5.33-2.481-.771-4.488-.715-5.967.164m42.603 81.916c-1.425 0-2.955-.252-4.555-.748-3.307-1.028-6.927-3.093-10.758-6.133-7.63-6.057-15.426-15.45-21.95-26.448C6.914 43.128 2.406 31.782.746 22.176c-.834-4.823-.912-8.992-.23-12.392.37-1.843.968-3.461 1.78-4.808.89-1.478 2.039-2.641 3.415-3.46C7.087.698 8.66.246 10.381.17c1.57-.07 3.275.179 5.069.736 3.309 1.029 6.928 3.092 10.76 6.134 7.63 6.057 15.425 15.449 21.95 26.447 6.523 10.997 11.03 22.345 12.691 31.95.835 4.823.912 8.993.23 12.391-.37 1.845-.968 3.462-1.779 4.808-.89 1.478-2.04 2.643-3.416 3.46-1.377.82-2.949 1.273-4.671 1.347-.17.008-.342.012-.514.012" mask="url(#B)"/>
            </g>
        </g>
    </g>
</svg>
