<?xml version="1.0" encoding="utf-8"?>
<!-- Generator: Adobe Illustrator 19.0.0, SVG Export Plug-In . SVG Version: 6.00 Build 0)  -->
<svg version="1.1" id="Layer_1" xmlns="http://www.w3.org/2000/svg" xmlns:xlink="http://www.w3.org/1999/xlink" x="0px" y="0px"
	 viewBox="0 0 98.3 87.3" style="enable-background:new 0 0 98.3 87.3;" xml:space="preserve">
<style type="text/css">
	.st0{fill:#FFFFFF;}
	.st1{filter:url(#Adobe_OpacityMaskFilter);}
	.st2{mask:url(#x_1_);fill:#FFFFFF;}
	.st3{filter:url(#Adobe_OpacityMaskFilter_1_);}
	.st4{mask:url(#z_1_);fill:#FFFFFF;}
	.st5{filter:url(#Adobe_OpacityMaskFilter_2_);}
	.st6{mask:url(#B_1_);fill:#FFFFFF;}
</style>
<g>
	<path class="st0" d="M56.1,43.6c0,3.8-3.1,7-7,7c-3.8,0-7-3.1-7-7c0,0,0,0,0,0c0-3.8,3.1-7,7-7c0,0,0,0,0,0
		C53,36.7,56.1,39.8,56.1,43.6"/>
	<g transform="translate(101.386 38.71)">
		<defs>
			<filter id="Adobe_OpacityMaskFilter" filterUnits="userSpaceOnUse" x="-101.4" y="-15.3" width="98.3" height="40.4">
				<feColorMatrix  type="matrix" values="1 0 0 0 0  0 1 0 0 0  0 0 1 0 0  0 0 0 1 0"/>
			</filter>
		</defs>
		<mask maskUnits="userSpaceOnUse" x="-101.4" y="-15.3" width="98.3" height="40.4" id="x_1_">
			<g class="st1">
				<path id="w_1_" class="st0" d="M-101.4-15.3h98.3v40.4h-98.3V-15.3z"/>
			</g>
		</mask>
		<path class="st2" d="M-52.3-10.6c-6.2,0-12.2,0.5-17.8,1.4c-5.4,0.9-10.3,2.1-14.4,3.7c-4,1.5-7.2,3.3-9.3,5.2
			c-1.9,1.7-2.9,3.5-2.9,5.2s1,3.5,2.9,5.2c2.1,1.9,5.3,3.7,9.3,5.2c4.1,1.6,9,2.8,14.4,3.7c5.6,0.9,11.7,1.4,17.8,1.4
			s12.2-0.5,17.8-1.4C-29,18.2-24.1,17-20,15.4c4-1.5,7.2-3.3,9.3-5.2c1.9-1.7,2.9-3.5,2.9-5.2s-1-3.5-2.9-5.2
			C-12.8-2.2-16-4-20-5.5c-4.1-1.6-9-2.8-14.4-3.7C-40.1-10.1-46.1-10.6-52.3-10.6 M-52.3,25.1c-12.8,0-24.8-1.9-33.9-5.4
			c-4.6-1.7-8.2-3.8-10.8-6.1c-1.4-1.3-2.5-2.6-3.2-4c-0.8-1.5-1.2-3.1-1.2-4.7c0-1.6,0.4-3.2,1.2-4.7c0.7-1.4,1.8-2.7,3.2-4
			c2.6-2.3,6.2-4.4,10.8-6.1c9.1-3.5,21.1-5.4,33.9-5.4s24.8,1.9,33.9,5.4c4.6,1.7,8.2,3.8,10.8,6.1c1.4,1.3,2.5,2.6,3.2,4
			c0.8,1.5,1.2,3.1,1.2,4.7c0,1.6-0.4,3.2-1.2,4.7c-0.7,1.4-1.8,2.7-3.2,4c-2.6,2.3-6.2,4.4-10.8,6.1
			C-27.4,23.2-39.5,25.1-52.3,25.1"/>
	</g>
	<g transform="translate(119.721 16.037)">
		<defs>
			<filter id="Adobe_OpacityMaskFilter_1_" filterUnits="userSpaceOnUse" x="-101.3" y="-16" width="61.5" height="87.3">
				<feColorMatrix  type="matrix" values="1 0 0 0 0  0 1 0 0 0  0 0 1 0 0  0 0 0 1 0"/>
			</filter>
		</defs>
		<mask maskUnits="userSpaceOnUse" x="-101.3" y="-16" width="61.5" height="87.3" id="z_1_">
			<g class="st3">
				<path id="y_1_" class="st0" d="M-101.3-16h61.5v87.3h-61.5V-16z"/>
			</g>
		</mask>
		<path class="st4" d="M-50.7-11.4c-0.9,0-2,0.2-3.2,0.5c-2.7,0.8-5.9,2.7-9.2,5.3c-3.5,2.8-7,6.3-10.5,10.5
			c-3.7,4.4-7.1,9.3-10.3,14.7c-3.2,5.3-5.8,10.7-7.9,16.1c-2,5.1-3.4,9.9-4.2,14.3c-0.7,4.2-0.8,7.9-0.3,10.7
			c0.5,2.5,1.5,4.3,3,5.2c1.5,0.9,3.5,0.9,6,0.2c2.7-0.8,5.9-2.7,9.2-5.3c3.5-2.8,7-6.3,10.5-10.5c3.7-4.4,7.1-9.3,10.3-14.7
			c3.2-5.3,5.8-10.7,7.9-16.1c2-5.1,3.4-9.9,4.2-14.3c0.7-4.2,0.8-7.9,0.3-10.7c-0.5-2.5-1.5-4.3-3-5.2
			C-48.7-11.1-49.6-11.4-50.7-11.4 M-90.5,71.3c-0.2,0-0.3,0-0.5,0c-1.7-0.1-3.3-0.5-4.7-1.3c-1.4-0.8-2.5-2-3.4-3.5
			c-0.8-1.3-1.4-3-1.8-4.8c-0.7-3.4-0.6-7.6,0.2-12.4c1.7-9.6,6.2-21,12.7-32c6.5-11,14.3-20.4,22-26.4c3.8-3,7.5-5.1,10.8-6.1
			c1.8-0.6,3.5-0.8,5.1-0.7c1.7,0.1,3.3,0.5,4.7,1.3c1.4,0.8,2.5,2,3.4,3.5c0.8,1.3,1.4,3,1.8,4.8C-39.6-3-39.7,1.2-40.5,6
			c-1.7,9.6-6.2,21-12.7,32s-14.3,20.4-21.9,26.4c-3.8,3-7.5,5.1-10.8,6.1C-87.5,71-89.1,71.3-90.5,71.3"/>
	</g>
	<g transform="translate(119.721 16.037)">
		<defs>
			<filter id="Adobe_OpacityMaskFilter_2_" filterUnits="userSpaceOnUse" x="-101.3" y="-16" width="61.5" height="87.3">
				<feColorMatrix  type="matrix" values="1 0 0 0 0  0 1 0 0 0  0 0 1 0 0  0 0 0 1 0"/>
			</filter>
		</defs>
		<mask maskUnits="userSpaceOnUse" x="-101.3" y="-16" width="61.5" height="87.3" id="B_1_">
			<g class="st5">
				<path id="A_1_" class="st0" d="M-101.3-16h61.5v87.3h-61.5V-16z"/>
			</g>
		</mask>
		<path class="st6" d="M-93.3-10.7c-1.5,0.9-2.5,2.6-3,5.2C-96.8-2.7-96.8,1-96,5.2c0.8,4.4,2.2,9.2,4.2,14.3
			c2.1,5.3,4.8,10.7,7.9,16.1c3.2,5.3,6.6,10.3,10.3,14.7c3.5,4.2,7.1,7.8,10.5,10.5c3.3,2.6,6.5,4.5,9.2,5.3c2.5,0.8,4.5,0.7,6-0.2
			c1.5-0.9,2.5-2.6,3-5.2c0.6-2.8,0.5-6.5-0.3-10.7c-0.8-4.4-2.2-9.2-4.2-14.3c-2.1-5.3-4.8-10.7-7.9-16.1S-63.9,9.4-67.5,5
			c-3.5-4.2-7.1-7.8-10.5-10.5c-3.3-2.6-6.5-4.5-9.2-5.3C-89.8-11.6-91.8-11.5-93.3-10.7 M-50.7,71.3c-1.4,0-3-0.3-4.6-0.7
			c-3.3-1-6.9-3.1-10.8-6.1c-7.6-6.1-15.4-15.4-22-26.4c-6.5-11-11-22.3-12.7-32c-0.8-4.8-0.9-9-0.2-12.4c0.4-1.8,1-3.5,1.8-4.8
			c0.9-1.5,2-2.6,3.4-3.5c1.4-0.8,2.9-1.3,4.7-1.3c1.6-0.1,3.3,0.2,5.1,0.7c3.3,1,6.9,3.1,10.8,6.1c7.6,6.1,15.4,15.4,21.9,26.4
			c6.5,11,11,22.3,12.7,31.9c0.8,4.8,0.9,9,0.2,12.4c-0.4,1.8-1,3.5-1.8,4.8c-0.9,1.5-2,2.6-3.4,3.5c-1.4,0.8-2.9,1.3-4.7,1.3
			C-50.3,71.3-50.5,71.3-50.7,71.3"/>
	</g>
</g>
</svg>
