<svg xmlns="http://www.w3.org/2000/svg" width="243" height="223" viewBox="0 0 243 223">
    <g fill="none" fill-rule="evenodd">
        <path fill="#FFF" d="M240.856 140.397h-7.051V127.73h1.583v-2.304h1.295v-1.342h-1.295v-2.4h-3.599V90.406h1.97V88.49h.91v-2.211h-2.88v-6.141h-2.733c0-12.352-7.123-22.653-16.587-25.014v-1.59h-3.166V44.26a3.102 3.102 0 0 0 2.142-2.942 3.102 3.102 0 0 0-2.822-3.083l-.29-7.514-.29 7.514a3.101 3.101 0 0 0-2.823 3.083c0 1.377.9 2.532 2.14 2.942v9.274h-3.166v1.59c-9.462 2.361-16.585 12.662-16.585 25.014h-2.734v6.14h-2.879v2.212h.909v1.916h1.97v31.279h-3.599v2.4h-1.295v1.342h1.295v2.304h1.584v12.09H161.13v-34.518h1.343v-7.126h2.207v-2.303h-5.175V87.43l.347-6.672h2.066v-2.156h-2.56c-1.49-20.376-15.008-36.795-32.336-39.748V26.978s-4.029-3.886-4.029-14.825h-1.44V9.54c.699-.214 1.032-.639 1.032-1.151 0-.514-.333-.939-.792-1.098V3.373h2.243v-.719h-2.243V.4h-.767v2.255h-2.243v.72h2.243V7.29c-.458.16-.791.584-.791 1.098 0 .512.333.937.79 1.098l.241 2.667h-1.44c0 10.94-4.029 14.825-4.029 14.825v11.876C98.47 41.807 84.951 58.226 83.462 78.602h-2.56v2.156h2.066v6.672l.347 8.444h-5.176v2.303h2.207v7.126h1.344v34.518H59.958v-12.09h1.583v-2.304h1.295v-1.342h-1.295v-2.4h-3.598V90.406h1.97V88.49h.91v-2.211h-2.88v-6.141H55.21c0-12.352-7.123-22.653-16.586-25.014v-1.59h-3.166V44.26a3.102 3.102 0 0 0 2.141-2.942 3.102 3.102 0 0 0-2.822-3.083l-.29-7.514-.291 7.514a3.101 3.101 0 0 0-2.822 3.083c0 1.377.901 2.532 2.141 2.942v9.274h-3.166v1.59c-9.462 2.361-16.586 12.662-16.586 25.014h-2.735v6.14H8.15v2.212h.907v1.916h1.97v31.279H7.43v2.4H6.134v1.342H7.43v2.304h1.583v12.666H.88v1.583h1.08v1.583h3.022v5.758h4.03v7.483H7.455v3.743h1.558v19.575H3.976v23.412h-1.03v3.07h1.03v16.122H238.842v-16.122h1.03v-3.07h-1.03v-23.412h-5.037v-19.575h1.558v-3.743h-1.558v-7.483h4.03v-5.758h3.021v-1.583h1.08v-1.583h-1.08z"/>
        <path stroke="#1703C4" stroke-linecap="round" stroke-linejoin="round" stroke-width=".799" d="M79.131 78.602h83.341"/>
        <path stroke="#1703C4" stroke-linecap="round" stroke-linejoin="round" stroke-width=".5" d="M80.901 80.758h24.178M82.967 87.43h11.7"/>
        <path stroke="#1703C4" stroke-linecap="round" stroke-linejoin="round" stroke-width=".794" d="M78.14 98.177h69.82M80.346 105.303h21.379"/>
        <path stroke="#1703C4" stroke-linecap="round" stroke-linejoin="round" stroke-width=".5" d="M162.472 105.303h-5.511"/>
        <path stroke="#1703C4" stroke-linecap="round" stroke-linejoin="round" stroke-width=".794" d="M159.85 87.43h-5.536"/>
        <path stroke="#1703C4" stroke-linecap="round" stroke-linejoin="round" stroke-width=".5" d="M164.679 98.177h-6.66M81.69 106.416h12.976M81.69 107.652h4.33M115.796 26.978h5.613M120.078 28.23h-4.282M117.937 29.289h-2.14"/>
        <path stroke="#1703C4" stroke-linecap="round" stroke-linejoin="round" stroke-width=".794" d="M184.875 80.137l38.792.62M181.996 86.278h26.493"/>
        <path stroke="#1703C4" stroke-linecap="round" stroke-linejoin="round" stroke-width=".5" d="M181.996 88.49h10.788M182.904 90.406h3.35"/>
        <path stroke="#1703C4" stroke-linecap="round" stroke-linejoin="round" stroke-width=".794" d="M233.76 90.406h-16.446M234.669 86.278h-11.003"/>
        <path stroke="#1703C4" stroke-linecap="round" stroke-linejoin="round" stroke-width=".5" d="M234.669 88.49h-4.474"/>
        <path stroke="#1703C4" stroke-linecap="round" stroke-linejoin="round" stroke-width=".794" d="M181.277 121.685H212.9"/>
        <path stroke="#1703C4" stroke-linecap="round" stroke-linejoin="round" stroke-width=".5" d="M179.981 124.084h20.038M179.981 125.428h10.02"/>
        <path stroke="#1703C4" stroke-linecap="round" stroke-linejoin="round" stroke-width=".794" d="M181.277 127.73h34.272"/>
        <path stroke="#1703C4" stroke-linecap="round" stroke-linejoin="round" stroke-width=".5" d="M236.683 125.428h-13.016M241.936 141.98h-43.523"/>
        <path stroke="#1703C4" stroke-linecap="round" stroke-linejoin="round" stroke-width=".794" d="M237.835 149.32h-20.521M235.362 160.547H208.49M238.842 180.121h-20.294"/>
        <path stroke="#1703C4" stroke-linecap="round" stroke-linejoin="round" stroke-width=".5" d="M235.362 156.805h-6.195"/>
        <path stroke="#1703C4" stroke-linecap="round" stroke-linejoin="round" stroke-width=".794" d="M239.873 203.534h-12.298"/>
        <path stroke="#1703C4" stroke-linecap="round" stroke-linejoin="round" stroke-width=".5" d="M239.873 206.605h-6.15"/>
        <path stroke="#1703C4" stroke-linecap="round" stroke-linejoin="round" stroke-width=".794" d="M.882 140.397h38.412"/>
        <path stroke="#1703C4" stroke-linecap="round" stroke-linejoin="round" stroke-width=".5" d="M.882 141.98h16.843M1.961 143.563h9.412M4.983 149.32h29.86"/>
        <path stroke="#1703C4" stroke-linecap="round" stroke-linejoin="round" stroke-width=".794" d="M7.456 156.805H49.49M7.43 121.685h31.864"/>
        <path stroke="#1703C4" stroke-linecap="round" stroke-linejoin="round" stroke-width=".5" d="M6.134 124.084h15.297"/>
        <path stroke="#1703C4" stroke-linecap="round" stroke-linejoin="round" stroke-width=".794" d="M6.134 125.428H36.96"/>
        <path stroke="#1703C4" stroke-linecap="round" stroke-linejoin="round" stroke-width=".5" d="M7.43 127.73h19.472"/>
        <path stroke="#1703C4" stroke-linecap="round" stroke-linejoin="round" stroke-width=".794" d="M53.901 121.685h7.64"/>
        <path stroke="#1703C4" stroke-linecap="round" stroke-linejoin="round" stroke-width=".5" d="M9.058 90.406h30.236M8.15 88.49h29.693"/>
        <path stroke="#1703C4" stroke-linecap="round" stroke-linejoin="round" stroke-width=".794" d="M11.027 80.137h21.345M8.15 86.278h19.634"/>
        <path stroke="#1703C4" stroke-linecap="round" stroke-linejoin="round" stroke-width=".5" d="M7.456 160.547h24.21"/>
        <path stroke="#1703C4" stroke-linecap="round" stroke-linejoin="round" stroke-width=".794" d="M3.976 180.121H32.55"/>
        <path stroke="#1703C4" stroke-linecap="round" stroke-linejoin="round" stroke-width=".5" d="M2.945 203.534h15.317"/>
        <path stroke="#1703C4" stroke-linecap="round" stroke-linejoin="round" stroke-width=".794" d="M2.945 206.605h31.898M57.943 80.137H50.55M66.078 149.32h39.706M113.05 149.32h69.854M94.666 156.805h38.295"/>
    </g>
</svg>
