<svg xmlns="http://www.w3.org/2000/svg" width="93" height="255" viewBox="0 0 93 255">
    <g fill="none" fill-rule="evenodd">
        <path fill="#FFF" d="M66.706 220.34h4.092v-30.856h-4.092v30.856zm-6.704 0h2.2v-30.856h-2.2v30.856zm-29.725 0h2.2v-30.856h-2.2v30.856zm-8.596 0h4.094v-30.856H21.68v30.856zm68.38 28.86v-1.229H87.3v-13.663h2.762v-2.148h1.382v-3.377H78.217v-4.606h-1.432v-3.837H75.3v-34.131h2.353v-3.07H75.3v-2.66H66.91v-4.709h-3.275v-6.702h-1.74v-3.532h-5.192L55.648 47.028h2.564v-4.401h1.024V28.504H48.564v-2.66c1.637-.205 4.55-1.303 4.858-2.736.307-1.433-4.326-9.612-2.832-10.057C55.4 11.617 61.54 1.793 60.823.575c-.717-1.217-6.294 2.497-9.875 5.26-.978.755-1.892 1.41-2.853 1.817.838-2.884 1.493-7.298-1.95-7.298-3.476 0-2.377 5.194-1.795 7.283-.95-.41-1.851-1.055-2.818-1.802-3.582-2.763-9.158-6.477-9.874-5.26-.717 1.218 5.423 11.042 10.232 12.476 1.494.445-3.14 8.624-2.832 10.057.307 1.433 3.222 2.53 4.859 2.735v2.661H33.245v14.123h1.024v4.4h2.563l-1.056 118.51h-5.192v3.53h-1.739v6.703H25.57v4.708h-8.39v2.661h-2.355v3.07h2.354v34.131h-1.483v3.837h-1.433v4.606H1.037v3.377H2.42v2.148h2.763v13.663H2.419v1.229H.577v5.526h91.325V249.2h-1.84z"/>
        <path stroke="#1703C4" stroke-linecap="round" stroke-linejoin="round" stroke-width=".794" d="M.577 249.2h57.206"/>
        <path stroke="#1703C4" stroke-linecap="round" stroke-linejoin="round" stroke-width=".5" d="M2.419 247.971h28.959"/>
        <path stroke="#1703C4" stroke-linecap="round" stroke-linejoin="round" stroke-width=".794" d="M2.419 234.309H39.96"/>
        <path stroke="#1703C4" stroke-linecap="round" stroke-linejoin="round" stroke-width=".5" d="M1.037 232.16h21.806"/>
        <path stroke="#1703C4" stroke-linecap="round" stroke-linejoin="round" stroke-width=".794" d="M91.443 232.16H53.548"/>
        <path stroke="#1703C4" stroke-linecap="round" stroke-linejoin="round" stroke-width=".5" d="M90.061 234.309H73.314M90.061 247.971H80.55"/>
        <path stroke="#1703C4" stroke-linecap="round" stroke-linejoin="round" stroke-width=".794" d="M91.903 249.2H76.489M14.263 224.177h30.11M14.263 228.782h40.698"/>
        <path stroke="#1703C4" stroke-linecap="round" stroke-linejoin="round" stroke-width=".5" d="M78.217 224.177H64.666M15.695 220.34h21.089"/>
        <path stroke="#1703C4" stroke-linecap="round" stroke-linejoin="round" stroke-width=".794" d="M14.826 186.209H42.43"/>
        <path stroke="#1703C4" stroke-linecap="round" stroke-linejoin="round" stroke-width=".5" d="M14.826 183.14h16.551"/>
        <path stroke="#1703C4" stroke-linecap="round" stroke-linejoin="round" stroke-width=".794" d="M17.18 180.479h20.663"/>
        <path stroke="#1703C4" stroke-linecap="round" stroke-linejoin="round" stroke-width=".5" d="M60.003 180.479H75.3M77.654 183.14H56.195"/>
        <path stroke="#1703C4" stroke-linecap="round" stroke-linejoin="round" stroke-width=".794" d="M77.654 186.209H56.195"/>
        <path stroke="#1703C4" stroke-linecap="round" stroke-linejoin="round" stroke-width=".5" d="M19.843 189.484h30.529M25.57 175.77h18.803"/>
        <path stroke="#1703C4" stroke-linecap="round" stroke-linejoin="round" stroke-width=".794" d="M28.845 169.068h8.998M30.584 165.536h13.788"/>
        <path stroke="#1703C4" stroke-linecap="round" stroke-linejoin="round" stroke-width=".5" d="M63.635 169.068H47.55"/>
        <path stroke="#1703C4" stroke-linecap="round" stroke-linejoin="round" stroke-width=".794" d="M66.91 175.77H56.196M33.245 42.626h14.657M34.268 47.028h13.104"/>
        <path stroke="#1703C4" stroke-linecap="round" stroke-linejoin="round" stroke-width=".5" d="M33.245 28.504h12.187"/>
        <path stroke="#1703C4" stroke-linecap="round" stroke-linejoin="round" stroke-width=".794" d="M53.923 79.997l.508 84.717M53.725 47.028l.157 26.263"/>
    </g>
</svg>
