<svg xmlns="http://www.w3.org/2000/svg" width="269" height="200" viewBox="0 0 269 200">
    <g fill="none" fill-rule="evenodd">
        <path fill="#FFF" d="M156.79 41.737v-.01l.01.003c.002.003 0 .005-.002.007h-.008zm-3.587-7.843c-.399.15-.8.303-1.2.455-.382-.39-.82-.001-1.223-.09-1.122-.185-2.213-.595-3.38-.47-.41-.724-.494-1.504-.381-2.314.752.11 1.5.292 2.254.32 1.24.047 2.38.327 3.717.135l2.327.283c-.389.137-.776.276-1.163.414-.537.258-1.02.556-.951 1.267zm1.51 10.538h-2.151c-.074-.258-.163-.545-.13-.663.34-.52-.083-1.415.55-1.931l.25.505c.28.178.6.152.91.172.052.239.221.371.49.417.283.09.165.283.12.46-.157.325-.246.714-.038 1.04zm-2.503-.267c.004 0 .006-.002.009-.003l-.006.012-.003-.009zm-1.27-7.05l.094.766-.117.189c-.364.166-4.082 4.761-4.588 5.324-.132-.28-.12-.65-.428-.82.164-.322.25-.654.145-1.015a.81.81 0 0 0-.06-.05l.223-.656c.432-.104.59-.43.67-.8.18-.809.447-1.6.524-2.431.088-.923.082-1.847.051-2.773a2.318 2.318 0 0 0-.04-.284.39.39 0 0 1-.018-.078c.593-.44 3.4.355 3.849.248.145.807-.572 1.525-.278 2.347l-.026.034zm-5.743 7.317v-.302c.011-.04.042-.07.135-.06.747.078.747.072 1.233-.347.202-.124 3.01-3.661 3.583-4.398l.216-.027c.028.138.06.276.089.414-.091.404-.252.803-.07 1.221.003.268-.025.541.143.78.495.843.433 1.799.38 2.72h-5.71zm-27.07 0c.047-1.275.724-2.44 1.016-3.643.015-.059.22-.073.338-.107.435.459 2.435 3.09 3.404 3.558.01.05.021.121.033.192h-4.791zm-.44-9.724c.318-.054.619-.178.531-.558-.077-.343-.424-.258-.668-.24-.222.018-.438.119-.658.182.04-.344-.307-.367-.46-.55-.265-.316-.114-.294.244-.321 1.672.166 3.255.404 4.484.556-.059.643-.09 1.284.088 1.928l.223.56c-.18.771.21 1.495.19 2.254-.09.626.087 1.158.548 1.595.11.084.203.292.362.054l.129.386c-.311.535-.339 1.058.061 1.563l.134.363a.683.683 0 0 1-.073.13c-.117.243-.08.488-.049.735-.601-.413-2.984-3.082-2.98-3.123-.025-.366-.202-.666-.41-.95a.297.297 0 0 1-.017-.021c.005-.033.01-.065.011-.098.06-1.428-.591-2.687-.962-4.012a6.107 6.107 0 0 0-.197-.003c-.178-.04-.39.057-.533-.13l.003-.3zm-.817 9.724h-1.272c.035-.196.116-.534.287-.72.125-.134.673-.133 1-.173.073.198.146.395.221.593a.806.806 0 0 0 .007.3h-.243zm44.2-17v.004-.003zm95.73 35.77v-8.583h2.553v-5.971h1.507v-2.875h4.864v-1.34H157.849c-.074-.199-.147-.426-.223-.595-.1-.339-.08-.686-.1-1.027-.052-.948.785-1.578.719-2.481.657.102.01.48-.07.778-.071.263.63 1.093.987.87.87-.683.558-1.916 1.02-2.812.718.198.892-.69 1.547-.658-.234 1.476-.22 2.855-1.2 3.878-.215.225-.274.6-.226.945-.087.557.157.826.715.82 1.113-.238 1.029-.96 1.043-1.633.673-1.408.458-3.03 1.083-4.458.129-.295.206-.702-.09-1.017-.251-.38-.713-.373-1.063-.574.083-.804.134-1.615.469-2.37-.034-.566.08-1.168-.412-1.617-.078-.416-.42-.673-.617-1.015.132-.538-.293-1.085.024-1.621.099-.568.088-.59.076-.615.23-.337.23-.75.322-1.131.434-.215.52-.61.91-.814.238-.123.57-.5.413-.926-.2-.55-.07-1.116-.119-1.673.245-.136.376-.34.374-.623.242-.527-.42-1.054-.001-1.58.25-.498.597-.763.343-1.154-.091-.117-.463.206-.69.309-.645-.401-.746-.34-.812-.514.168-.169.28-.472.05-.668-.697.323-.887.53-1.078.738-.583.568-1.439.825-1.826 1.614-.458.398-.8.876-1.01 1.448-.362.494-.788.958-.805 1.623-.381.406-.659.87-.822 1.401-.245.656-.351 1.325-.193 2.019-.129.543-.627 1.033-.233 1.65-.33.202-.501.405-.544.7-1.636-.202-4.784-.274-5.618-.4-.984-.252-2.003-.187-3-.404-.695-.453-.814-1.268-1.545-1.574a8.191 8.191 0 0 1-.026-1.362c.332-.766.106-1.572.16-2.358-.138-.74.178-1.399.362-2.082l-.184-.81c.095-.522.434-1.007.245-1.575l-.438-.747-.366-.718c.15-.29.29-.58.117-.938-.129-.1-.53.512-.77.515-.517-.69-1.031-.31-1.363-.271-.653.077-.312.747-.52 1.109-.292.136-.282.401-.28.663-.565.94-.716 1.875-.937 2.787-.371.62-.13 1.38-.457 2.01-.487.917-.08 2.056-1.022 2.788-.059-.292.02-.616-.203-.87-.21-.834-.35-1.11-.559-1.353-.318-.426-.635-.84-1.208-.33-.607.166-.698.568-.555 1.005.11.331.108.62 0 .93-.432-.22-.618-.415-.911-.373-.61-.362-.788-.512-.968-.66l-.29-.753.397-1.034c.592-.645.714-1.212.516-1.866-.054-.33-.237-.527-.578-.558-.782-.81-1.247-.687-1.791-.394.12-.735-.196-1.175-.836-1.538v-2.208c.364-.1.48-.694.121-.777.395-.383-.13-.687.075-1.081.349-.382.028-.746-.196-.97.373-.036.603-.101.818-.2a3.508 3.508 0 0 0 1.517-1.097c.555-.856.74-1.454.74-2.093 0-1.555-1.064-2.865-2.519-3.279 1.061-.945 1.627-1.11 1.965-1.759.183-.297-.172-.508-.126-.783.188-.135.419-.233.413-.52l.414-.52c.62-.396.729-.965.55-1.631.728-.665.323-1.3.75-1.599-.12-.31.182-.744 0-1.034-.02-.246-1.355.76-1.793 1.408-1.366.85-2.165 1.294-1.915 2.432.004.414-.186.645-.617.645-.184-.166-.583-.103-.548-.507.384-.743.205-1.933-.404-1.854-.981.323-.636 1.243-.273 1.933-1.464.278-.782-.384-1.4-.615-.735-.565-1.458-1.153-2.39-1.374-.279-.226-.53-.508-.844-.658-.324-.157-.56-.788-.954-.423-.237.223.297.457.26 1.027.21.45-.113.567.057.842.478.174.393.813.837 1.015.688 1.164 1.134 1.961 2.156 2.063.137 1.243.252 1.343 1.262 1.103.559.391.308.685.153.986-1.203.541-2.038 1.725-2.038 3.102 0 .625.175 1.208.477 1.713.309.54.764.988 1.291 1.253.676.561.92.598 1.154.655-.239.22-.302.532-.257.902.067.322.137.64.354.903-.197.21-.107.628.065.721.237.933.277 1.334.268 1.996-1.288 1.204-1.86 2.368-2.484 3.724-.43.25-.325.742-.39 1.155-.56.743-1.325 1.12-1.194 2.024-.133.31-.121.623-.031.94-.317.382-.14.832-.175 1.254-.221.715.347 1.536-.3 2.192l-.974-1.86c.12-.486.117-.939-.33-1.28l-.047-.846c.015-.42.03-.839.047-1.258l.342-.963c.571-.613.153-1.23.006-1.846.055-.332.345-.654.046-1.001-.459-.533-.549-1.22-.779-1.847-.104-.298-.53-.39-1.276-.279-.61-.109-1.165-.15-.937.766-.048.12-.136.31-.263.575-.369.13-.35.436-.335.741.26.452.095.967.216 1.44-.035.624-.069 1.242-.199 1.861-.11.519-.457 1.056-.09 1.61l-.382.579c-.426.607-.868 1.211-.374 1.993-.232.335-.313.884-.8 1.104-.673.38-.818.768-.638 1.28.004.398-.034.796-.073 1.193-1.793-.288-4.09-.568-4.505-.57-.942-.421-1.62.09-1.693-.555-.058-.239-.327-.395-.32-.66-.644-.698-.825-.95-1.007-1.202-.122-1.092-.246-1.628-.537-2.102-.206-.287-.326-.46-.252-.69-.273-.68-.468-1.406-.84-2.024-.497-.823-.481-1.979-1.54-2.441-.179-.498-.69-.67-1.008-1.03-.297-.657-.896-.502-1.427-.53-.665.026-1.222.375-1.813.615-.347.533-.062.945.426 1.218.03.255-.149.427-.254.627-.043.926.203 1.506.446 2.086-.145.343.014.754-.237 1.074-.298.821.349 1.18.803 1.633.01.963 1.004 1.35 1.27 2.165.385.126-.183 1.274-.34 1.598-.731.354-.498 1.05-.58 1.632-.3.508-.11.999.057 1.489.124.366.3.73-.01 1.094-.287.072-.437.264-.477.552-.037 2.218-.104 4.01.085 5.783.038.356.034.826.537.963 1.274-.053 1.053-.564 1.047-1.01.14-.406-.199-.671-.288-1.007-.305-1.14-.874-2.289-.098-3.464.938.957.878 1.962 1.878 2.252.882.454 1.224.632 1.636.411.362-.507-.597-1.294-.49-1.416.5.728 1.204.052 1.18.348-.396.55-.1 1.283.407 1.652-.097.831.48 1.524.478 2.344 0 .03-36.576.076-109.73.14v1.34h4.863v2.876h1.507v5.971h2.553v8.582H1.313v1.34h4.865v2.877h1.507v5.971h2.552v21.149l-.721 1.41h2.194v5.168h1.605l-1.24 86.473H10.41v12.137H29.43v-12.137h-1.665l-1.24-86.473h1.604v-5.169h2.195V94.65h19.407v1.297h2.193v5.17h1.606l-1.24 86.472h-1.666v12.137h19.02v-12.137H67.98l-1.24-86.473h1.605v-5.169h2.194V94.65h19.407v1.297h2.194v5.17h1.605l-1.24 86.472h-1.666v12.137h19.022v-12.137h-1.666l-1.24-86.473h1.604v-5.169h2.195V94.65h46.77v1.297h2.192v5.17h1.606l-1.24 86.472h-1.667v12.137h19.022v-12.137h-1.666l-1.24-86.473h1.607v-5.169h2.193V94.65h19.407v1.297h2.193v5.17h1.606l-1.24 86.472h-1.667v12.137h19.022v-12.137h-1.667l-1.238-86.473h1.604v-5.169h2.194V94.65h19.408v1.297h2.193v5.17h1.605l-1.239 86.472h-1.668v12.137h19.022v-12.137H256.2l-1.24-86.473h1.605v-5.169h2.194V94.65l.723-21.26h2.553v-5.972h1.507v-2.877h4.863V63.2H256.8z"/>
        <path stroke="#1703C4" stroke-linecap="round" stroke-linejoin="round" stroke-width=".794" d="M3.995 45.772H96.2"/>
        <path stroke="#1703C4" stroke-linecap="round" stroke-linejoin="round" stroke-width=".5" d="M8.859 48.648h46.224"/>
        <path stroke="#1703C4" stroke-linecap="round" stroke-linejoin="round" stroke-width=".794" d="M10.365 54.62h57.07M1.314 63.2h48.784"/>
        <path stroke="#1703C4" stroke-linecap="round" stroke-linejoin="round" stroke-width=".5" d="M1.314 64.541h29.24M6.178 67.418h36.375"/>
        <path stroke="#1703C4" stroke-linecap="round" stroke-linejoin="round" stroke-width=".794" d="M7.685 73.389h40.516"/>
        <path stroke="#1703C4" stroke-linecap="round" stroke-linejoin="round" stroke-width=".5" d="M9.516 94.538H66.73"/>
        <path stroke="#1703C4" stroke-linecap="round" stroke-linejoin="round" stroke-width=".794" d="M9.516 95.948h12.92M11.71 101.116h9.138M49.731 95.948h10.646M51.924 101.116h8.453"/>
        <path stroke="#1703C4" stroke-linecap="round" stroke-linejoin="round" stroke-width=".5" d="M89.946 94.65H105.2"/>
        <path stroke="#1703C4" stroke-linecap="round" stroke-linejoin="round" stroke-width=".794" d="M89.946 95.948h8.549M92.139 101.116h7.944"/>
        <path stroke="#1703C4" stroke-linecap="round" stroke-linejoin="round" stroke-width=".5" d="M157.522 94.65h12.62"/>
        <path stroke="#1703C4" stroke-linecap="round" stroke-linejoin="round" stroke-width=".794" d="M157.522 95.948h16.15M159.715 101.116h12.016"/>
        <path stroke="#1703C4" stroke-linecap="round" stroke-linejoin="round" stroke-width=".5" d="M197.737 94.65h16.523"/>
        <path stroke="#1703C4" stroke-linecap="round" stroke-linejoin="round" stroke-width=".794" d="M197.737 95.948h8.262M199.93 101.116h9.565"/>
        <path stroke="#1703C4" stroke-linecap="round" stroke-linejoin="round" stroke-width=".5" d="M237.951 94.65h15.661"/>
        <path stroke="#1703C4" stroke-linecap="round" stroke-linejoin="round" stroke-width=".794" d="M237.951 95.948h13.368M240.144 101.116h8.528M163.833 187.608h13.603"/>
        <path stroke="#1703C4" stroke-linecap="round" stroke-linejoin="round" stroke-width=".5" d="M209.495 187.608h8.156M251.319 187.608h6.547"/>
        <path stroke="#1703C4" stroke-linecap="round" stroke-linejoin="round" stroke-width=".794" d="M100.083 187.608h9.776M63.024 187.608h6.621"/>
        <path stroke="#1703C4" stroke-linecap="round" stroke-linejoin="round" stroke-width=".5" d="M20.848 187.608h8.582"/>
        <path stroke="#1703C4" stroke-linecap="round" stroke-linejoin="round" stroke-width=".794" d="M265.724 45.772h-39.287"/>
        <path stroke="#1703C4" stroke-linecap="round" stroke-linejoin="round" stroke-width=".5" d="M260.86 48.648h-11.483M259.353 54.62h-21.402"/>
        <path stroke="#1703C4" stroke-linecap="round" stroke-linejoin="round" stroke-width=".794" d="M268.405 63.2h-40.028"/>
        <path stroke="#1703C4" stroke-linecap="round" stroke-linejoin="round" stroke-width=".5" d="M268.405 64.541h-17.793M263.541 67.418h-14.87"/>
        <path stroke="#1703C4" stroke-linecap="round" stroke-linejoin="round" stroke-width=".794" d="M262.034 73.389h-28.01"/>
    </g>
</svg>
