<svg xmlns="http://www.w3.org/2000/svg" width="231" height="204" viewBox="0 0 231 204">
    <g fill="none" fill-rule="evenodd">
        <path fill="#FFF" d="M179.874 164.577h-8.498c-9.327-10.255-24.045-17.793-41.27-20.563h50.404l-.636 20.563zm-.39 12.669a38.97 38.97 0 0 0-2.317-4.76h2.464l-.148 4.76zm-116.82-12.669c11.628-11.717 30.948-19.4 52.776-19.4 21.828 0 41.147 7.683 52.775 19.4H62.665zm-11.66 0l-.635-20.563h50.405c-17.225 2.77-31.943 10.308-41.271 20.563h-8.498zm.245 7.909h2.463a39.117 39.117 0 0 0-2.316 4.76l-.147-4.76zm167.115-90.21l-.075-26.692h1.928V46.43h-6.608l-10.966-34.826-.094-2.415a2.216 2.216 0 0 0 1.507-2.096c0-1.037-.713-1.901-1.672-2.147L202.203.28h-.742l-.18 4.667a2.218 2.218 0 0 0-1.673 2.147c0 .976.633 1.796 1.507 2.096l-.093 2.415-10.968 34.826h-6.607v9.153h1.927v26.692l-11.344 6.377v1.384h1.508v2.373h1.254v11.27h1.91v4.152l2.736 6.13-.684 22.143H50.126l-.684-22.144 2.736-6.13v-4.151h1.91V92.41h1.254v-2.373h1.507v-1.384L45.58 82.276l-.074-26.692h1.927V46.43h-6.607L29.858 11.605l-.093-2.415a2.216 2.216 0 0 0 1.506-2.096c0-1.037-.712-1.901-1.671-2.147L29.418.28h-.74l-.183 4.667a2.218 2.218 0 0 0-1.672 2.147c0 .976.633 1.796 1.508 2.096l-.094 2.415L17.27 46.431h-6.61v9.153h1.93v26.692L1.247 88.653v1.384h1.508v2.373h1.253v11.27h1.91v4.152l2.736 6.13-2.315 74.934H4.83v3.758h1.394l-.536 11.072h46.719l-.536-11.072h1.394v-3.758h-1.509l-.127-4.121c.76-4.312 2.39-8.438 4.758-12.29h118.106c2.369 3.852 3.998 7.978 4.757 12.29l-.127 4.121h-1.508v3.758h1.393l-.536 11.072h46.72l-.536-11.072h1.393v-3.758h-1.508l-2.315-74.935 2.736-6.13v-4.151h1.91V92.41h1.253v-2.373h1.507v-1.384l-11.268-6.377z"/>
        <path stroke="#1703C4" stroke-linecap="round" stroke-linejoin="round" stroke-width=".794" d="M10.662 46.43h20.946"/>
        <path stroke="#1703C4" stroke-linecap="round" stroke-linejoin="round" stroke-width=".5" d="M10.662 55.584h14.416"/>
        <path stroke="#1703C4" stroke-linecap="round" stroke-linejoin="round" stroke-width=".794" d="M37.607 46.43h9.826M35.652 33.59l3.368 12.84M30.02 12.115l4.15 15.826M39.02 55.584h8.413M1.247 90.037h44.83"/>
        <path stroke="#1703C4" stroke-linecap="round" stroke-linejoin="round" stroke-width=".5" d="M2.755 92.41h18.38"/>
        <path stroke="#1703C4" stroke-linecap="round" stroke-linejoin="round" stroke-width=".794" d="M4.008 103.68h29.54M5.918 107.832H28.96M8.654 113.961h12.481M54.088 103.68H43.226"/>
        <path stroke="#1703C4" stroke-linecap="round" stroke-linejoin="round" stroke-width=".5" d="M55.341 92.41h-7.908"/>
        <path stroke="#1703C4" stroke-linecap="round" stroke-linejoin="round" stroke-width=".794" d="M56.849 90.037h-4.771"/>
        <path stroke="#1703C4" stroke-linecap="round" stroke-linejoin="round" stroke-width=".5" d="M49.442 113.961H35.137M52.178 107.832h-6.1"/>
        <path stroke="#1703C4" stroke-linecap="round" stroke-linejoin="round" stroke-width=".794" d="M4.83 188.896h34.365"/>
        <path stroke="#1703C4" stroke-linecap="round" stroke-linejoin="round" stroke-width=".5" d="M4.83 192.653h15.66"/>
        <path stroke="#1703C4" stroke-linecap="round" stroke-linejoin="round" stroke-width=".794" d="M53.265 192.653h-14.07"/>
        <path stroke="#1703C4" stroke-linecap="round" stroke-linejoin="round" stroke-width=".5" d="M177.615 192.653h25.874"/>
        <path stroke="#1703C4" stroke-linecap="round" stroke-linejoin="round" stroke-width=".794" d="M177.615 188.896h17.757M226.05 188.896h-11.443"/>
        <path stroke="#1703C4" stroke-linecap="round" stroke-linejoin="round" stroke-width=".5" d="M181.438 113.961h25.405"/>
        <path stroke="#1703C4" stroke-linecap="round" stroke-linejoin="round" stroke-width=".794" d="M178.702 107.832h41.626M176.792 103.68h30.051"/>
        <path stroke="#1703C4" stroke-linecap="round" stroke-linejoin="round" stroke-width=".5" d="M176.792 92.41h35.345"/>
        <path stroke="#1703C4" stroke-linecap="round" stroke-linejoin="round" stroke-width=".794" d="M174.031 90.037h32.812M226.872 103.68h-4.853M229.633 90.037H219.02"/>
        <path stroke="#1703C4" stroke-linecap="round" stroke-linejoin="round" stroke-width=".5" d="M228.125 92.41h-7.796"/>
        <path stroke="#1703C4" stroke-linecap="round" stroke-linejoin="round" stroke-width=".794" d="M185.3 82.276h11.837M183.447 55.584h20.396M183.447 46.43h25.337"/>
        <path stroke="#1703C4" stroke-linecap="round" stroke-linejoin="round" stroke-width=".5" d="M222.226 113.961h-4.618"/>
        <path stroke="#1703C4" stroke-linecap="round" stroke-linejoin="round" stroke-width=".794" d="M224.962 107.832h-1.884"/>
        <path stroke="#1703C4" stroke-linecap="round" stroke-linejoin="round" stroke-width=".5" d="M226.05 192.653h-5.721M218.29 82.276h-3.154M50.37 138.484h130.14"/>
        <path stroke="#1703C4" stroke-linecap="round" stroke-linejoin="round" stroke-width=".794" d="M51.25 169.34h128.38"/>
    </g>
</svg>
