<svg xmlns="http://www.w3.org/2000/svg" xmlns:xlink="http://www.w3.org/1999/xlink" width="58" height="51.969" viewBox="0 0 58 51.969">
  <defs>
    <style>
      .cls-1 {
        fill: #30f;
        filter: url(#filter);
      }

      .cls-1, .cls-2 {
        fill-rule: evenodd;
      }

      .cls-2 {
        fill: #fff;
      }
    </style>
    <filter id="filter" x="65.031" y="65" width="9.969" height="9" filterUnits="userSpaceOnUse">
      <feFlood result="flood" flood-color="#fff"/>
      <feComposite result="composite" operator="in" in2="SourceGraphic"/>
      <feBlend result="blend" in2="SourceGraphic"/>
    </filter>
  </defs>
  <path id="heart" class="cls-1" d="M74.221,65.776h0a2.606,2.606,0,0,0-3.763,0L70,66.248l-0.458-.472a2.606,2.606,0,0,0-3.763,0h0a2.8,2.8,0,0,0,0,3.876l0.458,0.472L70,74l3.763-3.876,0.458-.472A2.8,2.8,0,0,0,74.221,65.776Z" transform="translate(-41 -42)"/>
  <path class="cls-2" d="M88.688,58.855h0q-0.926-.32-1.867-0.593,0.156-.639.288-1.283c1.413-6.913.489-12.483-2.666-14.316-3.026-1.758-7.974.075-12.972,4.457q-0.739.649-1.444,1.335Q69.555,48,69.066,47.561c-5.238-4.686-10.488-6.661-13.64-4.822-3.023,1.763-3.918,7-2.646,13.551q0.19,0.973.429,1.936c-0.743.213-1.46,0.439-2.147,0.68C44.922,61.063,41,64.444,41,67.951c0,3.622,4.21,7.255,10.606,9.458q0.778,0.267,1.568.494-0.257,1.037-.456,2.087c-1.213,6.438-.266,11.55,2.749,13.3,3.114,1.809,8.34-.05,13.429-4.533q0.6-.531,1.21-1.124,0.764,0.743,1.568,1.441c4.929,4.274,9.8,6,12.81,4.243,3.111-1.815,4.122-7.306,2.809-13.988q-0.15-.766-0.348-1.562,0.551-.164,1.079-0.339C94.674,75.211,99,71.622,99,67.951,99,64.432,94.952,61.028,88.688,58.855ZM73.1,49c4.282-3.755,8.284-5.238,10.108-4.178,1.942,1.129,2.7,5.68,1.477,11.65q-0.12.583-.261,1.162A58.924,58.924,0,0,0,76.667,56.4a58.6,58.6,0,0,0-4.9-6.166Q72.415,49.6,73.1,49ZM58.125,70.947q0.787,1.531,1.644,3.024,0.875,1.522,1.821,3a52.4,52.4,0,0,1-5.345-.866C56.758,74.441,57.389,72.709,58.125,70.947Zm0-5.872c-0.722-1.725-1.339-3.42-1.843-5.057,1.655-.373,3.42-0.678,5.258-0.91q-0.923,1.451-1.778,2.945T58.123,65.075Zm1.317,2.936q1.145-2.4,2.467-4.712h0q1.321-2.309,2.812-4.512c1.725-.131,3.493-0.2,5.281-0.2s3.567,0.069,5.291.2q1.476,2.2,2.794,4.5t2.5,4.69q-1.162,2.409-2.492,4.731h0q-1.318,2.307-2.782,4.524c-1.721.124-3.5,0.188-5.311,0.188s-3.561-.057-5.251-0.167q-1.5-2.211-2.835-4.531T59.44,68.011Zm20.8,5.943q0.875-1.529,1.682-3.1h0A53.294,53.294,0,0,1,83.87,76a52.233,52.233,0,0,1-5.41.929Q79.379,75.459,80.24,73.954ZM81.9,65.077q-0.8-1.537-1.668-3.041h0q-0.85-1.481-1.764-2.923c1.851,0.235,3.624.548,5.288,0.931A53.5,53.5,0,0,1,81.9,65.077ZM70.028,52.022a53.281,53.281,0,0,1,3.413,4.152q-3.426-.163-6.855,0C67.713,54.675,68.867,53.284,70.028,52.022ZM56.667,44.9c1.941-1.132,6.231.482,10.753,4.528,0.289,0.259.579,0.529,0.87,0.81A59.755,59.755,0,0,0,63.35,56.4a60.116,60.116,0,0,0-7.74,1.212q-0.222-.9-0.4-1.8h0C54.122,50.2,54.846,45.962,56.667,44.9ZM53.839,75.5q-0.721-.208-1.432-0.452a20.937,20.937,0,0,1-6.765-3.621c-1.438-1.242-2.165-2.474-2.165-3.474,0-2.128,3.149-4.843,8.4-6.688q0.989-.346,2-0.633A60.148,60.148,0,0,0,56.7,68.012,61.067,61.067,0,0,0,53.839,75.5ZM67.266,86.879a20.958,20.958,0,0,1-6.493,4.1h0c-1.786.635-3.208,0.654-4.068,0.154-1.83-1.063-2.59-5.168-1.553-10.674q0.185-.976.424-1.94a57.861,57.861,0,0,0,7.816,1.14,60.676,60.676,0,0,0,4.979,6.2Q67.831,86.38,67.266,86.879Zm2.83-2.822c-1.174-1.277-2.346-2.689-3.49-4.208q1.666,0.066,3.393.066,1.773,0,3.5-.078A53.022,53.022,0,0,1,70.1,84.057Zm15.046,3.474c-0.346,1.876-1.04,3.127-1.9,3.628-1.828,1.066-5.737-.32-9.952-3.975q-0.725-.628-1.459-1.34a58.6,58.6,0,0,0,4.862-6.221A57.42,57.42,0,0,0,84.55,78.4q0.177,0.722.314,1.414h0A21.3,21.3,0,0,1,85.142,87.531Zm2.1-12.47h0c-0.317.106-.643,0.208-0.974,0.307a58.858,58.858,0,0,0-2.937-7.4,58.846,58.846,0,0,0,2.823-7.3c0.593,0.173,1.169.356,1.724,0.548,5.367,1.861,8.641,4.614,8.641,6.736C96.523,70.211,92.987,73.144,87.246,75.061Z" transform="translate(-41 -42)"/>
</svg>
